<?xml version="1.0" encoding="UTF-8"?>
<svg version="1.1" xmlns="http://www.w3.org/2000/svg" width="360" height="360">
<path d="M0 0 C118.8 0 237.6 0 360 0 C360 118.8 360 237.6 360 360 C241.2 360 122.4 360 0 360 C0 241.2 0 122.4 0 0 Z " fill="#FBFBFC" transform="translate(0,0)"/>
<path d="M0 0 C118.8 0 237.6 0 360 0 C360 118.8 360 237.6 360 360 C241.2 360 122.4 360 0 360 C0 241.2 0 122.4 0 0 Z M64.6875 54.75 C64.02999756 55.09361572 63.37249512 55.43723145 62.69506836 55.79125977 C41.57162791 67.11503305 27.4131828 84.98202647 20.15722656 107.63061523 C17.07133263 119.32197024 17.47743009 131.35880765 17.49902344 143.36547852 C17.49999342 147.1617476 17.45831899 150.95597561 17.4140625 154.75195312 C17.27622065 182.75571654 23.62511283 204.69560982 43.125 225.625 C55.11740857 237.1360379 72.98857888 248 90 248 C89.80664062 248.90878906 89.61328125 249.81757813 89.4140625 250.75390625 C87.78873459 258.59892959 86.4650495 266.39573759 85.47265625 274.3515625 C85.01092435 277.91567486 84.45526368 281.4534933 83.875 285 C82.35938997 292.66155581 82.35938997 292.66155581 84.0625 300 C86.48555246 301.25060772 88.32832525 301.2819967 90.98828125 300.7578125 C98.10439665 298.07717874 103.8926254 291.34963852 109.40625 286.3125 C112.0022008 283.99803784 114.66555183 281.80501577 117.375 279.625 C121.38828944 276.38045333 125.22392769 273.01231375 129 269.5 C135.8794999 263.11308972 142.82066953 256.68226431 151 252 C151.185625 252.94875 151.37125 253.8975 151.5625 254.875 C154.92387577 266.51053153 165.72885014 276.35826567 175.82536316 282.35343933 C185.97271943 287.6164784 196.30350778 288.53589965 207.54296875 288.29296875 C208.88664831 288.28506123 210.23034938 288.2802734 211.5740509 288.27839661 C217.20006351 288.26680752 222.8248187 288.21410371 228.44995117 288.11352539 C231.9225591 288.05357295 235.39313381 288.03834806 238.86620522 288.0496769 C240.79785389 288.04316304 242.72914225 287.9875621 244.65995789 287.9304657 C254.41261902 287.98293227 259.17573885 291.26147237 266 298 C267.30269744 299.13354152 268.61198753 300.25965594 269.93359375 301.37109375 C271.10227632 302.39241293 272.27024975 303.41454415 273.4375 304.4375 C274.71579392 305.54467726 275.99444476 306.65144257 277.2734375 307.7578125 C279.67226185 309.8367936 282.04987767 311.93645527 284.4140625 314.0546875 C285.4631512 314.97440392 286.51260924 315.89369928 287.5625 316.8125 C288.47128906 317.62332031 289.38007813 318.43414062 290.31640625 319.26953125 C293.52130789 321.33615633 295.25570098 321.6039192 299 321 C304.4181884 312.8727174 298.7838829 296.26721559 297 287 C297.85658203 286.90525391 297.85658203 286.90525391 298.73046875 286.80859375 C312.53884041 284.72306862 324.04613941 276.62598079 332.296875 265.625 C338.82758455 255.55931923 342.30151376 245.06955245 342.3359375 233.14453125 C342.3425943 232.32103683 342.3492511 231.49754242 342.35610962 230.64909363 C342.3661756 228.91541759 342.37092853 227.18170328 342.37060547 225.44799805 C342.37496014 222.8364039 342.41129181 220.22652849 342.44921875 217.61523438 C342.57798701 198.41551001 337.4325593 184.93565141 324 171 C323.46958603 170.55871262 322.93917206 170.11742523 322.39268494 169.6627655 C320.5304995 167.43945022 320.62785248 166.10861829 320.63110352 163.23168945 C320.62077843 161.77790642 320.62077843 161.77790642 320.61024475 160.29475403 C320.61640305 159.24486801 320.62256134 158.19498199 320.62890625 157.11328125 C320.61149627 154.87174348 320.59391226 152.63020706 320.57617188 150.38867188 C320.56618097 146.86968155 320.5624812 143.35079089 320.56420898 139.83178711 C320.54675364 123.42026839 320.40335159 108.03348442 312.375 93.25 C311.48941406 91.58710937 311.48941406 91.58710937 310.5859375 89.890625 C310.06257813 88.93671875 309.53921875 87.9828125 309 87 C308.326389 85.6701615 307.65625036 84.33849083 307 83 C306.34 83 305.68 83 305 83 C304.78859375 82.30390625 304.5771875 81.6078125 304.359375 80.890625 C302.61788183 77.18744987 300.12374276 74.59084696 297.25 71.75 C296.38979248 70.89728516 296.38979248 70.89728516 295.51220703 70.02734375 C280.648297 55.74767523 260.98198585 46.9306228 240.26759338 46.85282898 C238.95165695 46.84567368 237.63572052 46.83851837 236.27990723 46.83114624 C234.83837914 46.82830657 233.39685081 46.82559477 231.95532227 46.82299805 C230.42361805 46.8167252 228.89191533 46.81007769 227.36021423 46.80308533 C222.34562217 46.78213301 217.33103012 46.77168842 212.31640625 46.76171875 C210.5823102 46.75766733 208.84821431 46.75355029 207.11411858 46.74936867 C198.96091016 46.73033317 190.80771067 46.716101 182.65448433 46.7077567 C173.28131368 46.69800248 163.90838031 46.67172361 154.53529316 46.63125581 C147.26617038 46.60096241 139.9971151 46.58627521 132.72793049 46.58297569 C128.39807284 46.5806395 124.06846911 46.57186826 119.73867989 46.54651451 C115.65669692 46.52299705 111.57513082 46.519094 107.49309731 46.52927589 C106.00818229 46.52976574 104.52324505 46.52361151 103.03839493 46.50971985 C89.75164276 46.39253232 76.52032169 48.34469009 64.6875 54.75 Z " fill="#F4F4F4" transform="translate(0,0)"/>
<path d="M0 0 C1.53628023 -0.0037964 3.07255701 -0.0093072 4.60882568 -0.01637268 C8.72867123 -0.03017036 12.84809181 -0.0192708 16.96791315 -0.00266147 C21.30949268 0.01133829 25.65105122 0.00471236 29.99264526 0.00120544 C37.27674085 -0.00148444 44.56067049 0.01187502 51.84472656 0.03515625 C60.23136654 0.06177826 68.61772973 0.06350211 77.00439751 0.05176789 C85.12024499 0.04094043 93.23599367 0.04721468 101.35183334 0.06132317 C104.78448739 0.06703805 108.21706806 0.06703618 111.64972305 0.06225777 C115.69980491 0.05743939 119.74958865 0.06778769 123.79961395 0.08921242 C125.27406433 0.09471425 126.74854376 0.0953075 128.22299576 0.09025955 C151.81659 0.01969142 173.11560687 7.26336621 190.18701172 23.77514648 C199.90185547 33.53192481 199.90185547 33.53192481 199.90185547 36.50170898 C200.56185547 36.50170898 201.22185547 36.50170898 201.90185547 36.50170898 C203.92628485 40.48983486 205.92117571 44.49168412 207.90185547 48.50170898 C208.29244141 49.27514648 208.68302734 50.04858398 209.08544922 50.84545898 C214.06902079 61.23921137 215.12865932 71.19727276 215.06201172 82.57592773 C215.0564753 84.220774 215.0564753 84.220774 215.05082703 85.89884949 C215.02626415 90.49086518 214.98960592 95.08090855 214.88500977 99.671875 C213.90968716 112.99603132 213.90968716 112.99603132 218.07177734 125.15283203 C220.5537028 127.61235499 223.04414807 129.51044162 225.90185547 131.50170898 C233.9701101 141.20143476 237.02362859 152.65954841 237.14013672 165.06420898 C237.14820847 165.89194824 237.15628021 166.7196875 237.16459656 167.57250977 C237.17839676 169.32411635 237.189137 171.07574937 237.19702148 172.82739258 C237.20848517 174.59602901 237.22884695 176.3646324 237.25854492 178.13305664 C237.54477201 195.20754175 234.72197572 208.42320529 224.65185547 222.68920898 C215.55634733 231.99143322 205.07885264 239.05969797 191.90185547 240.50170898 C192.10681641 241.56647461 192.31177734 242.63124023 192.52294922 243.72827148 C197.3322498 269.35611749 197.3322498 269.35611749 193.90185547 274.50170898 C190.88218725 275.12146622 188.88131291 275.11426036 186.21777344 273.44848633 C184.35102749 271.93027003 182.59329578 270.3364457 180.83935547 268.68920898 C179.51192094 267.49052723 178.1837833 266.29262371 176.85498047 265.09545898 C176.19304687 264.49088867 175.53111328 263.88631836 174.84912109 263.26342773 C171.98475235 260.67199282 169.04431669 258.17625279 166.08935547 255.68920898 C164.6565625 254.47297852 164.6565625 254.47297852 163.19482422 253.23217773 C162.68104721 252.81588608 162.1672702 252.39959442 161.63792419 251.97068787 C159.90185547 250.50170898 159.90185547 250.50170898 157.88661194 248.51527405 C150.80158514 241.98821981 145.25815493 241.4039081 135.85498047 241.64233398 C134.51275822 241.64498141 133.17052222 241.64349276 131.82830811 241.63812256 C128.31485243 241.63238426 124.8034384 241.67050854 121.29040527 241.72198486 C115.68571805 241.7998855 110.08120583 241.82342041 104.47603607 241.82189178 C102.54531633 241.82957402 100.61477179 241.86537634 98.68438721 241.90216064 C81.77155344 241.98760891 69.26897585 236.59338791 57.02685547 225.18920898 C51.80189248 219.71724775 47.43981176 212.9992459 45.90185547 205.50170898 C41.33050549 208.41767617 37.23796452 211.63114745 33.15185547 215.18920898 C32.53914795 215.71812744 31.92644043 216.2470459 31.29516602 216.79199219 C27.72809673 219.88114979 24.20658766 223.01546837 20.71435547 226.18920898 C16.50228672 230.01585967 12.12746715 233.59791411 7.69873047 237.16967773 C4.77633323 239.60636929 1.99714437 242.157258 -0.78564453 244.75170898 C-10.78939206 253.91348632 -10.78939206 253.91348632 -16.91064453 255.00170898 C-19.65654038 254.37407565 -20.45277396 253.78905941 -22.09814453 251.50170898 C-22.44003408 244.39595054 -21.17970842 237.24857632 -19.63330078 230.32983398 C-18.91849357 226.55231266 -18.51569627 222.75941584 -18.09814453 218.93920898 C-17.44608255 213.00901346 -16.57267123 207.29449244 -15.09814453 201.50170898 C-16.33564453 201.41920898 -17.57314453 201.33670898 -18.84814453 201.25170898 C-34.54310918 199.41532467 -48.46734301 190.80619103 -60.09814453 180.50170898 C-60.77103516 179.92291992 -61.44392578 179.34413086 -62.13720703 178.74780273 C-76.49414781 165.50624182 -85.65384057 145.60880996 -87.38887024 126.25949097 C-87.50597573 122.95666512 -87.54035164 119.66595474 -87.53173828 116.36108398 C-87.53698013 115.15462219 -87.54222198 113.9481604 -87.54762268 112.70513916 C-87.55400044 110.17070275 -87.55276155 107.63623658 -87.54418945 105.10180664 C-87.53569605 101.27492152 -87.56447811 97.44954051 -87.59619141 93.62280273 C-87.64361546 77.53218148 -87.31508258 61.66272489 -79.41064453 47.18920898 C-78.89908813 46.21359009 -78.89908813 46.21359009 -78.37719727 45.21826172 C-67.59679313 25.27928417 -50.38938223 10.12547583 -28.61477852 3.43072414 C-18.99540359 0.85436469 -9.95596123 -0.07158668 0 0 Z M-38.47314453 15.25170898 C-39.1317749 15.59387451 -39.79040527 15.93604004 -40.46899414 16.28857422 C-46.23493825 19.3810307 -51.26280544 23.09036418 -56.09814453 27.50170898 C-57.01080078 28.27708008 -57.01080078 28.27708008 -57.94189453 29.06811523 C-71.06887377 40.97189868 -79.13484359 59.9754992 -80.29286194 77.43797302 C-80.37607707 80.53113305 -80.4015819 83.61837468 -80.39892578 86.71264648 C-80.40321091 87.84264069 -80.40749603 88.97263489 -80.41191101 90.13687134 C-80.41761809 92.51173232 -80.41818154 94.88661078 -80.41381836 97.26147461 C-80.41065912 100.86009036 -80.43416215 104.45788201 -80.45947266 108.05639648 C-80.58419697 124.51297161 -80.58419697 124.51297161 -77.09814453 140.50170898 C-76.86498535 141.23873047 -76.63182617 141.97575195 -76.39160156 142.73510742 C-75.73397065 144.72018832 -74.95091191 146.59194002 -74.09814453 148.50170898 C-73.48326172 149.8880957 -73.48326172 149.8880957 -72.85595703 151.30249023 C-69.45464833 158.53716578 -65.41195916 164.54134657 -60.09814453 170.50170898 C-59.17388672 171.5497168 -59.17388672 171.5497168 -58.23095703 172.61889648 C-47.18849395 184.39446915 -32.41164101 191.56400582 -16.71923828 194.76342773 C-13.80956262 195.58299361 -11.61581765 196.84905918 -9.09814453 198.50170898 C-9.47714069 208.92410327 -11.02195564 219.07265933 -12.72607422 229.34887695 C-13.61291501 234.80416827 -14.34475521 239.97285672 -14.09814453 245.50170898 C-10.41858162 243.93938877 -7.9329866 241.66586816 -5.03564453 238.93920898 C-1.34450995 235.50636069 2.40595806 232.22232806 6.33935547 229.06420898 C10.33410603 225.84226934 14.1473093 222.49506933 17.90185547 219.00170898 C22.5945421 214.63716101 27.43426516 210.52048842 32.43310547 206.50561523 C35.09048208 204.34859909 37.64904593 202.10348073 40.17138672 199.79077148 C45.75978655 195.62785513 50.3608302 195.07817595 57.078125 195.16455078 C57.98321808 195.16399689 58.88831116 195.16344299 59.8208313 195.16287231 C61.78181172 195.16313165 63.74280002 195.16998721 65.70373917 195.18271446 C68.82678177 195.2011767 71.94915688 195.19839388 75.07223511 195.18965149 C83.95060484 195.16792045 92.82872118 195.17840067 101.70703125 195.21679688 C107.14773535 195.23883104 112.58778696 195.23112199 118.02846909 195.20633888 C120.08293671 195.20278848 122.1374584 195.21017035 124.19183731 195.22958946 C148.834559 195.45772254 169.2756939 189.02298139 187.46679688 171.94116211 C191.20171116 168.19481052 194.11345487 163.97463534 196.90185547 159.50170898 C197.45486328 158.62901367 198.00787109 157.75631836 198.57763672 156.85717773 C204.58406973 146.67754065 207.95402383 134.76831782 208.07885742 122.93383789 C208.09169266 121.86477203 208.10452789 120.79570618 208.11775208 119.69424438 C208.12513901 118.55047333 208.13252594 117.40670227 208.14013672 116.22827148 C208.14820847 115.03172943 208.15628021 113.83518738 208.16459656 112.60238647 C208.17840894 110.06900467 208.18914377 107.53560448 208.19702148 105.00219727 C208.20849765 102.43638576 208.22887931 99.87059731 208.25854492 97.30493164 C208.53559766 73.31742699 206.67877266 52.19787903 189.90185547 33.50170898 C189.13486328 32.61870117 188.36787109 31.73569336 187.57763672 30.82592773 C175.38656662 17.65082507 157.88300086 8.92722984 139.90185547 7.50170898 C134.97204191 7.34426801 130.04272273 7.33385461 125.11083984 7.32470703 C123.61839646 7.31843203 122.12595461 7.31178434 120.6335144 7.30479431 C115.75422224 7.2838706 110.8749302 7.27340127 105.99560547 7.26342773 C104.30701177 7.25937548 102.61841822 7.25525842 100.92982483 7.25107765 C92.99126218 7.23204978 85.05270867 7.21781507 77.11412764 7.20946568 C67.99169639 7.19970922 58.8695088 7.17342126 49.7471633 7.13296479 C42.66910153 7.1026664 35.59110908 7.0879838 28.5129838 7.08468467 C24.29827422 7.08234941 20.08382562 7.0735902 15.8691864 7.0482235 C11.89635004 7.02469647 7.92394197 7.02080665 3.95105362 7.03098488 C2.50645129 7.03147447 1.06182604 7.02532811 -0.3827095 7.01142883 C-13.56706564 6.89183881 -26.72532374 8.93559001 -38.47314453 15.25170898 Z " fill="#424041" transform="translate(105.09814453125,46.498291015625)"/>
<path d="M0 0 C8.69589433 6.03388586 13.569119 15.9613893 15.64477539 26.23071289 C16.36396422 31.83742004 16.33271307 37.47512098 16.31567383 43.11889648 C16.31252116 45.29787636 16.3360131 47.47548463 16.36132812 49.65429688 C16.42928605 64.5045799 13.71468196 78.99573204 3 90 C2.34 90 1.68 90 1 90 C1 90.66 1 91.32 1 92 C-7.21722282 98.93184719 -15.88148436 101.98514815 -26 105 C-28.1518424 105.79195775 -28.1518424 105.79195775 -28.66210938 107.7734375 C-29.03968073 110.26147997 -28.83581687 112.14843609 -28.40625 114.625 C-28.26316406 115.49640625 -28.12007812 116.3678125 -27.97265625 117.265625 C-27.81667969 118.16796875 -27.66070312 119.0703125 -27.5 120 C-27.19051603 121.79040315 -26.88815362 123.58205541 -26.59375 125.375 C-26.45646484 126.16648437 -26.31917969 126.95796875 -26.17773438 127.7734375 C-25.9917739 130.10305224 -26.30405038 131.78308411 -27 134 C-27.92039062 133.20078125 -28.84078125 132.4015625 -29.7890625 131.578125 C-33.15365842 128.65778293 -36.5219225 125.74169911 -39.89111328 122.82666016 C-41.89725133 121.0889981 -43.89993561 119.34742595 -45.90234375 117.60546875 C-47.12222444 116.54928118 -48.34226951 115.49328342 -49.5625 114.4375 C-50.1208252 113.94991211 -50.67915039 113.46232422 -51.25439453 112.95996094 C-52.05852783 112.26628418 -52.05852783 112.26628418 -52.87890625 111.55859375 C-53.3385376 111.15954834 -53.79816895 110.76050293 -54.27172852 110.34936523 C-54.84205811 109.90407471 -55.4123877 109.45878418 -56 109 C-56.7719873 108.29689697 -57.54397461 107.59379395 -58.33935547 106.86938477 C-63.41987105 103.55599233 -69.87102741 104.47995526 -75.69140625 104.53125 C-77.04175308 104.52641438 -78.39209337 104.51925205 -79.74241638 104.5098877 C-84.73377213 104.48038316 -89.72484969 104.49332545 -94.71624756 104.50506592 C-98.93271633 104.51335069 -103.14856097 104.50498845 -107.36494255 104.47593689 C-109.31935838 104.4689625 -111.273814 104.48563602 -113.22816467 104.50305176 C-127.7348989 104.4221633 -140.56516313 100.26829695 -151.25 90.25 C-156.53970498 84.65986553 -160.60884595 78.61378058 -162 71 C-160.32442017 70.99453156 -160.32442017 70.99453156 -158.61499023 70.98895264 C-148.02418003 70.95181308 -137.43365551 70.89383593 -126.84306335 70.81609726 C-121.39992162 70.77679506 -115.9569375 70.74452262 -110.51367188 70.72900391 C-105.24849862 70.71372281 -99.98375918 70.6790774 -94.71878052 70.63169098 C-92.72246091 70.61699428 -90.72607933 70.60896582 -88.72970581 70.60811615 C-67.48276213 70.58999961 -49.25083239 66.70373195 -31.8125 53.98828125 C-29.56963635 52.40270126 -27.4938418 51.12102985 -25 50 C-25 49.34 -25 48.68 -25 48 C-23.87823991 46.87823991 -22.75329669 45.75956881 -21.6171875 44.65234375 C-9.64820631 32.42316732 -2.5582624 16.85443464 0 0 Z " fill="#009BFC" transform="translate(319,177)"/>
<path d="M0 0 C0.86560297 -0.00694553 1.73120594 -0.01389106 2.62303931 -0.02104706 C5.52894724 -0.03937065 8.43404371 -0.02903788 11.33998108 -0.01878357 C13.42110812 -0.02583934 15.50223003 -0.0345829 17.58334351 -0.04489136 C23.2403705 -0.06743362 28.89711836 -0.06443424 34.55417323 -0.05556989 C39.27356041 -0.05046738 43.99289478 -0.05774658 48.71227652 -0.06504196 C59.84408416 -0.08205641 70.97575477 -0.07845959 82.1075592 -0.06175232 C93.5990768 -0.04482841 105.09021462 -0.06066597 116.58169073 -0.0929752 C126.44166916 -0.11964907 136.3015292 -0.12695307 146.16154009 -0.11846012 C152.05323339 -0.11352462 157.94469811 -0.11578033 163.83636284 -0.13624763 C169.37603984 -0.15457005 174.91516945 -0.14868782 180.45481682 -0.12404823 C182.48937709 -0.11902947 184.52397881 -0.12255757 186.55850601 -0.13519669 C189.33350152 -0.1510736 192.1066827 -0.13622733 194.8815918 -0.11352539 C195.68918015 -0.12536112 196.4967685 -0.13719685 197.32882923 -0.14939123 C201.38302794 -0.08187977 203.29165907 0.35044994 206.53929996 2.85861301 C208.50428772 5.5146637 208.50428772 5.5146637 208.56678772 8.6396637 C207.30657039 12.04966352 206.67007461 12.78787207 203.50428772 14.5146637 C200.5980732 14.80614866 197.90751234 14.92388991 195.00184631 14.90234375 C194.13553778 14.90772929 193.26922924 14.91311483 192.37666893 14.91866356 C189.46854396 14.93299189 186.56087104 14.92582743 183.65272522 14.91871643 C181.56997816 14.9244174 179.48723422 14.9313806 177.40449524 14.93951416 C171.74344216 14.95748967 166.08254371 14.95626905 160.42147064 14.95057178 C155.69951187 14.94748663 150.97758309 14.95356478 146.25562859 14.95961052 C135.11908866 14.97366824 123.98262543 14.97208375 112.84608459 14.96070862 C101.34664707 14.94922258 89.84744262 14.96330852 78.34803581 14.99010509 C68.48298941 15.01223479 58.61801632 15.01890574 48.75294685 15.01302868 C42.85740199 15.0096518 36.9620066 15.01212281 31.06648254 15.02927971 C25.52441857 15.04470351 19.982701 15.04084405 14.44065094 15.02197456 C12.40405597 15.01827618 10.36743559 15.02143328 8.33086395 15.03186035 C5.55574838 15.04498647 2.78179389 15.03359759 0.00672913 15.01586914 C-0.80377207 15.02547415 -1.61427326 15.03507915 -2.4493351 15.04497522 C-6.01268798 14.9979687 -8.08854238 14.81494544 -10.99586487 12.67083836 C-13.04773576 9.72107694 -13.08227308 8.03402851 -12.49571228 4.5146637 C-9.18844302 -0.23666632 -5.35347772 -0.05447731 0 0 Z " fill="#413F3E" transform="translate(77.49571228027344,136.48533630371094)"/>
<path d="M0 0 C0.69817732 -0.00694553 1.39635465 -0.01389106 2.11568886 -0.02104706 C4.45506016 -0.03934286 6.79342027 -0.02904636 9.13282776 -0.01878357 C10.81002055 -0.0258408 12.48720696 -0.034585 14.16438293 -0.04489136 C18.72022573 -0.06741769 23.27572167 -0.06443804 27.831599 -0.05556989 C31.63390469 -0.05046422 35.43614496 -0.05774916 39.23844391 -0.06504196 C48.2080166 -0.08205141 57.17741922 -0.07846477 66.14698792 -0.06175232 C75.4027449 -0.04482971 84.65803033 -0.06066502 93.91373581 -0.0929752 C101.85866267 -0.11965971 109.80344263 -0.1269502 117.74840981 -0.11846012 C122.49435105 -0.11352757 127.24000853 -0.11576411 131.98591423 -0.13624763 C136.44877953 -0.15458691 140.91096588 -0.14866786 145.37379456 -0.12404823 C147.01166507 -0.11903471 148.64958715 -0.12254421 150.28741646 -0.13519669 C152.52393639 -0.15110726 154.75821502 -0.13619959 156.99462891 -0.11352539 C158.87144175 -0.11264593 158.87144175 -0.11264593 160.78617001 -0.1117487 C164.96625506 0.68786899 166.48090502 2.19194264 169.06080627 5.5146637 C169.12330627 8.6396637 169.12330627 8.6396637 168.06080627 11.5146637 C165.68244614 13.92678629 164.30366846 14.48535639 160.90921783 14.89498043 C159.65708748 14.89741033 158.40495712 14.89984022 157.11488342 14.90234375 C156.41600053 14.90772929 155.71711764 14.91311483 154.99705648 14.91866356 C152.65549703 14.93296986 150.31450077 14.92583315 147.97291565 14.91871643 C146.29410344 14.92441858 144.61529512 14.93138223 142.93649292 14.93951416 C138.3766335 14.95747675 133.81696618 14.95627153 129.25708199 14.95057178 C125.45220661 14.94748478 121.6473684 14.95356683 117.8424983 14.95961052 C108.86819851 14.97366396 99.8939939 14.9720873 90.91969299 14.96070862 C81.65602879 14.94922273 72.39265392 14.96330908 63.12902784 14.99010509 C55.17903587 15.01224172 47.22913486 15.01890419 39.27911425 15.01302868 C34.52932844 15.00965347 29.7797282 15.01211164 25.02996826 15.02927971 C20.56473331 15.04471468 16.09992808 15.04083191 11.63471031 15.02197456 C9.9948046 15.01827927 8.35486729 15.02142447 6.71499062 15.03186035 C4.47840407 15.0450084 2.24325324 15.03357999 0.00672913 15.01586914 C-1.24540123 15.01565986 -2.49753159 15.01545057 -3.78760529 15.01523495 C-7.52322443 14.42190127 -8.71150975 13.52210597 -10.93919373 10.5146637 C-11.43919373 7.5146637 -11.43919373 7.5146637 -10.93919373 4.5146637 C-7.74851386 0.20996114 -5.20896278 0.01168914 0 0 Z " fill="#413F3E" transform="translate(75.93919372558594,100.48533630371094)"/>
<path d="M0 0 C1.13418365 -0.01272446 2.26836731 -0.02544891 3.43692017 -0.03855896 C4.67703354 -0.03203308 5.91714691 -0.0255072 7.19483948 -0.01878357 C9.15876648 -0.03170692 9.15876648 -0.03170692 11.16236877 -0.04489136 C14.7513285 -0.06739574 18.33984746 -0.06444332 21.92885089 -0.05556989 C24.92591663 -0.05045984 27.92289954 -0.05775272 30.91995674 -0.06504196 C37.99098737 -0.08204451 45.06180222 -0.07847195 52.13282776 -0.06175232 C59.42549504 -0.04483147 66.71756374 -0.06066366 74.01016563 -0.0929752 C80.27358726 -0.11967443 86.53682259 -0.12694624 92.80029541 -0.11846012 C96.54022095 -0.11353164 100.27978636 -0.11574158 104.01966667 -0.13624763 C108.19041664 -0.15802128 112.36003242 -0.13920267 116.53077698 -0.11643982 C117.76886612 -0.12813202 119.00695526 -0.13982422 120.28256226 -0.15187073 C129.59391796 -0.04824261 129.59391796 -0.04824261 132.72964478 2.85879517 C134.42750549 5.5146637 134.42750549 5.5146637 134.49000549 8.6396637 C133.25895463 11.97074252 132.4422506 12.73862137 129.42750549 14.5146637 C126.8381424 14.89498043 126.8381424 14.89498043 123.84828186 14.90234375 C122.71265305 14.91224838 121.57702423 14.92215302 120.40698242 14.93235779 C119.165298 14.92785614 117.92361359 14.92335449 116.64430237 14.91871643 C115.33341141 14.92557968 114.02252045 14.93244293 112.67190552 14.93951416 C109.0789423 14.95745893 105.48622311 14.95627496 101.89322853 14.95057178 C98.89359575 14.94748222 95.89401 14.95356966 92.89438391 14.95961052 C85.81863336 14.97365806 78.74300355 14.97209222 71.66725159 14.96070862 C64.3666947 14.94922293 57.06650497 14.96330984 49.76599646 14.99010509 C43.49751366 15.01225132 37.22914622 15.01890206 30.96062708 15.01302868 C27.21686669 15.00965578 23.47334176 15.01209615 19.72961426 15.02927971 C15.55640852 15.0475987 11.38391901 15.03357304 7.21070862 15.01637268 C5.34818199 15.03087463 5.34818199 15.03087463 3.44802856 15.04566956 C2.31239975 15.03583542 1.17677094 15.02600128 0.00672913 15.01586914 C-0.97992485 15.01565986 -1.96657883 15.01545057 -2.98313141 15.01523495 C-6.31713567 14.37071094 -7.50703399 13.16153751 -9.57249451 10.5146637 C-10.07249451 7.5146637 -10.07249451 7.5146637 -9.57249451 4.5146637 C-6.63715351 0.75545097 -4.70890702 0.01341398 0 0 Z " fill="#413F3E" transform="translate(74.57249450683594,172.48533630371094)"/>
<path d="M0 0 C4.95 0 9.9 0 15 0 C15 4.95 15 9.9 15 15 C19.95 15 24.9 15 30 15 C30 10.05 30 5.1 30 0 C34.95 0 39.9 0 45 0 C45 4.95 45 9.9 45 15 C49.95 15 54.9 15 60 15 C60 10.05 60 5.1 60 0 C64.95 0 69.9 0 75 0 C75 4.95 75 9.9 75 15 C79.95 15 84.9 15 90 15 C90 10.05 90 5.1 90 0 C94.95 0 99.9 0 105 0 C105 4.95 105 9.9 105 15 C109.95 15 114.9 15 120 15 C120 10.05 120 5.1 120 0 C124.95 0 129.9 0 135 0 C135 4.95 135 9.9 135 15 C132.00520833 15.22786458 129.01041667 15.45572917 126.015625 15.68359375 C123.16523801 15.89994538 123.16523801 15.89994538 121.12631607 16.51463223 C118.67089701 17.07512335 116.482112 17.10600315 113.96331787 17.08229065 C112.94812073 17.07525116 111.93292358 17.06821167 110.88696289 17.06095886 C109.77925537 17.04801285 108.67154785 17.03506683 107.53027344 17.02172852 C106.35926086 17.01212097 105.18824829 17.00251343 103.98175049 16.99261475 C100.10756446 16.95960944 96.23349065 16.91928267 92.359375 16.87890625 C89.67467109 16.85403302 86.98995431 16.83071219 84.30523682 16.80735779 C77.95878533 16.75125991 71.61239614 16.68989466 65.26601243 16.62663645 C58.03997521 16.55486672 50.81388817 16.48896983 43.58779097 16.42356598 C28.72512932 16.28891155 13.86254804 16.14667449 -1 16 C-0.67 10.72 -0.34 5.44 0 0 Z " fill="#FEFEFE" transform="translate(120,30)"/>
<path d="M0 0 C4.95 0 9.9 0 15 0 C15 4.95 15 9.9 15 15 C19.95 15 24.9 15 30 15 C30 19.95 30 24.9 30 30 C69.27 30.33 108.54 30.66 149 31 C149 31.33 149 31.66 149 32 C148.23523629 32.00331015 147.47047258 32.00662029 146.68253422 32.01003075 C128.05282298 32.09133887 109.42319369 32.18345685 90.79359531 32.28752708 C81.78437043 32.33759595 72.77515439 32.38403945 63.76586914 32.421875 C55.91111038 32.45487126 48.05642138 32.49474443 40.20173973 32.54279006 C36.04481604 32.56797929 31.88793817 32.58978273 27.73095894 32.60334396 C23.81328614 32.61623335 19.89577111 32.63836094 15.97818565 32.66738319 C14.54519488 32.67640548 13.11217874 32.68213661 11.67916107 32.68421364 C4.91262124 32.69577119 -1.51887504 32.71621928 -8.06297398 34.57370949 C-10 35 -10 35 -15 35 C-15 28.4 -15 21.8 -15 15 C-10.05 15 -5.1 15 0 15 C0 10.05 0 5.1 0 0 Z " fill="#EFEFEF" transform="translate(90,15)"/>
<path d="M0 0 C3.35286458 0.03255208 6.70572917 0.06510417 10.05859375 0.09765625 C10.05859375 5.04765625 10.05859375 9.99765625 10.05859375 15.09765625 C15.00859375 15.09765625 19.95859375 15.09765625 25.05859375 15.09765625 C25.05859375 20.04765625 25.05859375 24.99765625 25.05859375 30.09765625 C30.00859375 30.09765625 34.95859375 30.09765625 40.05859375 30.09765625 C40.05859375 35.04765625 40.05859375 39.99765625 40.05859375 45.09765625 C35.10859375 45.09765625 30.15859375 45.09765625 25.05859375 45.09765625 C25.05859375 50.04765625 25.05859375 54.99765625 25.05859375 60.09765625 C22.41859375 60.09765625 19.77859375 60.09765625 17.05859375 60.09765625 C16.72859375 70.65765625 16.39859375 81.21765625 16.05859375 92.09765625 C15.72859375 92.09765625 15.39859375 92.09765625 15.05859375 92.09765625 C15.05494812 91.50678223 15.05130249 90.9159082 15.04754639 90.30712891 C15.00526104 84.07579232 14.93560536 77.84516119 14.85107422 71.61425781 C14.82310082 69.2985749 14.80177069 66.98280069 14.78759766 64.66699219 C14.68217938 48.40446669 14.42017917 32.94426235 6.37109375 18.34765625 C2.69070846 11.57007306 2.69070846 11.57007306 2.05859375 8.09765625 C1.39859375 8.09765625 0.73859375 8.09765625 0.05859375 8.09765625 C-1.92140625 4.63265625 -1.92140625 4.63265625 -3.94140625 1.09765625 C-2.94140625 0.09765625 -2.94140625 0.09765625 0 0 Z " fill="#F2F2F2" transform="translate(304.94140625,74.90234375)"/>
<path d="M0 0 C0.99 0 1.98 0 3 0 C3.32871094 0.68964844 3.65742188 1.37929688 3.99609375 2.08984375 C8.85993996 11.69890578 15.04214337 18.84748148 24.56640625 24.02734375 C25.03949219 24.34832031 25.51257813 24.66929687 26 25 C26 25.66 26 26.32 26 27 C26.66 27.66 27.32 28.32 28 29 C23.71 29 19.42 29 15 29 C15 33.95 15 38.9 15 44 C10.05 44 5.1 44 0 44 C0 39.05 0 34.1 0 29 C-4.95 29 -9.9 29 -15 29 C-15 24.05 -15 19.1 -15 14 C-10.05 14 -5.1 14 0 14 C0 9.38 0 4.76 0 0 Z " fill="#F4F4F4" transform="translate(150,256)"/>
<path d="M0 0 C2.64 0 5.28 0 8 0 C8 4.95 8 9.9 8 15 C3.05 15.33 -1.9 15.66 -7 16 C-7 20.62 -7 25.24 -7 30 C-11.95 30 -16.9 30 -22 30 C-22 34.95 -22 39.9 -22 45 C-27.61 45 -33.22 45 -39 45 C-39.33 40.71 -39.66 36.42 -40 32 C-38.246875 31.46375 -36.49375 30.9275 -34.6875 30.375 C-25.96643767 27.45767064 -18.24057622 23.84450295 -12 17 C-11.34 17 -10.68 17 -10 17 C-9.7525 16.443125 -9.505 15.88625 -9.25 15.3125 C-8 13 -8 13 -6.125 10.75 C-3.52684396 7.38768042 -1.78988433 3.83682651 0 0 Z " fill="#EDEDED" transform="translate(337,255)"/>
<path d="M0 0 C4.95 0 9.9 0 15 0 C15 4.95 15 9.9 15 15 C19.95 15 24.9 15 30 15 C30 19.95 30 24.9 30 30 C29.01 30.495 29.01 30.495 28 31 C25.50614144 29.83579824 23.10854408 28.61355193 20.6875 27.3125 C9.12761235 21.34217936 -2.06436944 18.47392492 -15 17 C-10.25368713 13.83579142 -5.63243123 14.87887245 0 15 C0 10.05 0 5.1 0 0 Z " fill="#EDEDED" transform="translate(255,30)"/>
<path d="M0 0 C4.95 0 9.9 0 15 0 C15.33 1.65 15.66 3.3 16 5 C16.99 5 17.98 5 19 5 C18.31035156 5.64324219 17.62070312 6.28648438 16.91015625 6.94921875 C7.92421231 15.59002355 0.90290227 24.96413923 -5 36 C-5.33 35.34 -5.66 34.68 -6 34 C-5.34 32.68 -4.68 31.36 -4 30 C-7.63 30 -11.26 30 -15 30 C-15 25.05 -15 20.1 -15 15 C-10.05 15 -5.1 15 0 15 C0 10.05 0 5.1 0 0 Z " fill="#FDFDFE" transform="translate(30,60)"/>
<path d="M0 0 C0.33 0.99 0.66 1.98 1 3 C5.95 3 10.9 3 16 3 C16 7.95 16 12.9 16 18 C11.71 18 7.42 18 3 18 C3 19.65 3 21.3 3 23 C2.67 23 2.34 23 2 23 C1.66114962 20.47980028 1.32879665 17.95901484 1 15.4375 C0.90460938 14.73302734 0.80921875 14.02855469 0.7109375 13.30273438 C0.13333583 8.82632145 -0.09489383 4.51338762 0 0 Z " fill="#FDFDFD" transform="translate(299,297)"/>
<path d="M0 0 C4.75 0.75 4.75 0.75 7 3 C6.98245387 5.60267662 6.86260542 8.0439635 6.625 10.625 C6.315625 14.275625 6.315625 14.275625 6 18 C1.05 18 -3.9 18 -9 18 C-9 13.05 -9 8.1 -9 3 C-3.555 2.505 -3.555 2.505 2 2 C1.34 1.34 0.68 0.68 0 0 Z " fill="#FEFEFE" transform="translate(174,282)"/>
<path d="M0 0 C4.95 0 9.9 0 15 0 C15 4.95 15 9.9 15 15 C10.05 15.33 5.1 15.66 0 16 C-1.7317728 10.8046816 -0.48096748 5.39752399 0 0 Z " fill="#FEFEFE" transform="translate(300,60)"/>
<path d="M0 0 C5.28 0 10.56 0 16 0 C16 4.95 16 9.9 16 15 C11.05 15 6.1 15 1 15 C0.67 10.05 0.34 5.1 0 0 Z " fill="#FEFEFE" transform="translate(329,270)"/>
<path d="M0 0 C4.95 0 9.9 0 15 0 C15 4.95 15 9.9 15 15 C10.05 15 5.1 15 0 15 C0 10.05 0 5.1 0 0 Z " fill="#FFFFFF" transform="translate(345,345)"/>
<path d="M0 0 C4.95 0 9.9 0 15 0 C15 4.95 15 9.9 15 15 C10.05 15 5.1 15 0 15 C0 10.05 0 5.1 0 0 Z " fill="#FFFFFF" transform="translate(315,345)"/>
<path d="M0 0 C4.95 0 9.9 0 15 0 C15 4.95 15 9.9 15 15 C10.05 15 5.1 15 0 15 C0 10.05 0 5.1 0 0 Z " fill="#FFFFFF" transform="translate(285,345)"/>
<path d="M0 0 C4.95 0 9.9 0 15 0 C15 4.95 15 9.9 15 15 C10.05 15 5.1 15 0 15 C0 10.05 0 5.1 0 0 Z " fill="#EEEEEE" transform="translate(270,345)"/>
<path d="M0 0 C4.95 0 9.9 0 15 0 C15 4.95 15 9.9 15 15 C10.05 15 5.1 15 0 15 C0 10.05 0 5.1 0 0 Z " fill="#FFFFFF" transform="translate(255,345)"/>
<path d="M0 0 C4.95 0 9.9 0 15 0 C15 4.95 15 9.9 15 15 C10.05 15 5.1 15 0 15 C0 10.05 0 5.1 0 0 Z " fill="#EEEEEE" transform="translate(240,345)"/>
<path d="M0 0 C4.95 0 9.9 0 15 0 C15 4.95 15 9.9 15 15 C10.05 15 5.1 15 0 15 C0 10.05 0 5.1 0 0 Z " fill="#FFFFFF" transform="translate(225,345)"/>
<path d="M0 0 C4.95 0 9.9 0 15 0 C15 4.95 15 9.9 15 15 C10.05 15 5.1 15 0 15 C0 10.05 0 5.1 0 0 Z " fill="#EEEEEE" transform="translate(210,345)"/>
<path d="M0 0 C4.95 0 9.9 0 15 0 C15 4.95 15 9.9 15 15 C10.05 15 5.1 15 0 15 C0 10.05 0 5.1 0 0 Z " fill="#FFFFFF" transform="translate(195,345)"/>
<path d="M0 0 C4.95 0 9.9 0 15 0 C15 4.95 15 9.9 15 15 C10.05 15 5.1 15 0 15 C0 10.05 0 5.1 0 0 Z " fill="#EEEEEE" transform="translate(180,345)"/>
<path d="M0 0 C4.95 0 9.9 0 15 0 C15 4.95 15 9.9 15 15 C10.05 15 5.1 15 0 15 C0 10.05 0 5.1 0 0 Z " fill="#FFFFFF" transform="translate(165,345)"/>
<path d="M0 0 C4.95 0 9.9 0 15 0 C15 4.95 15 9.9 15 15 C10.05 15 5.1 15 0 15 C0 10.05 0 5.1 0 0 Z " fill="#FFFFFF" transform="translate(135,345)"/>
<path d="M0 0 C4.95 0 9.9 0 15 0 C15 4.95 15 9.9 15 15 C10.05 15 5.1 15 0 15 C0 10.05 0 5.1 0 0 Z " fill="#FFFFFF" transform="translate(105,345)"/>
<path d="M0 0 C4.95 0 9.9 0 15 0 C15 4.95 15 9.9 15 15 C10.05 15 5.1 15 0 15 C0 10.05 0 5.1 0 0 Z " fill="#EEEEEE" transform="translate(90,345)"/>
<path d="M0 0 C4.95 0 9.9 0 15 0 C15 4.95 15 9.9 15 15 C10.05 15 5.1 15 0 15 C0 10.05 0 5.1 0 0 Z " fill="#FFFFFF" transform="translate(75,345)"/>
<path d="M0 0 C4.95 0 9.9 0 15 0 C15 4.95 15 9.9 15 15 C10.05 15 5.1 15 0 15 C0 10.05 0 5.1 0 0 Z " fill="#EEEEEE" transform="translate(60,345)"/>
<path d="M0 0 C4.95 0 9.9 0 15 0 C15 4.95 15 9.9 15 15 C10.05 15 5.1 15 0 15 C0 10.05 0 5.1 0 0 Z " fill="#FFFFFF" transform="translate(45,345)"/>
<path d="M0 0 C4.95 0 9.9 0 15 0 C15 4.95 15 9.9 15 15 C10.05 15 5.1 15 0 15 C0 10.05 0 5.1 0 0 Z " fill="#EEEEEE" transform="translate(30,345)"/>
<path d="M0 0 C4.95 0 9.9 0 15 0 C15 4.95 15 9.9 15 15 C10.05 15 5.1 15 0 15 C0 10.05 0 5.1 0 0 Z " fill="#FFFFFF" transform="translate(15,345)"/>
<path d="M0 0 C4.95 0 9.9 0 15 0 C15 4.95 15 9.9 15 15 C10.05 15 5.1 15 0 15 C0 10.05 0 5.1 0 0 Z " fill="#EEEEEE" transform="translate(0,345)"/>
<path d="M0 0 C4.95 0 9.9 0 15 0 C15 4.95 15 9.9 15 15 C10.05 15 5.1 15 0 15 C0 10.05 0 5.1 0 0 Z " fill="#EEEEEE" transform="translate(345,330)"/>
<path d="M0 0 C4.95 0 9.9 0 15 0 C15 4.95 15 9.9 15 15 C10.05 15 5.1 15 0 15 C0 10.05 0 5.1 0 0 Z " fill="#FFFFFF" transform="translate(330,330)"/>
<path d="M0 0 C4.95 0 9.9 0 15 0 C15 4.95 15 9.9 15 15 C10.05 15 5.1 15 0 15 C0 10.05 0 5.1 0 0 Z " fill="#FFFFFF" transform="translate(300,330)"/>
<path d="M0 0 C4.95 0 9.9 0 15 0 C15 4.95 15 9.9 15 15 C10.05 15 5.1 15 0 15 C0 10.05 0 5.1 0 0 Z " fill="#FFFFFF" transform="translate(270,330)"/>
<path d="M0 0 C4.95 0 9.9 0 15 0 C15 4.95 15 9.9 15 15 C10.05 15 5.1 15 0 15 C0 10.05 0 5.1 0 0 Z " fill="#EEEEEE" transform="translate(255,330)"/>
<path d="M0 0 C4.95 0 9.9 0 15 0 C15 4.95 15 9.9 15 15 C10.05 15 5.1 15 0 15 C0 10.05 0 5.1 0 0 Z " fill="#FFFFFF" transform="translate(240,330)"/>
<path d="M0 0 C4.95 0 9.9 0 15 0 C15 4.95 15 9.9 15 15 C10.05 15 5.1 15 0 15 C0 10.05 0 5.1 0 0 Z " fill="#EEEEEE" transform="translate(225,330)"/>
<path d="M0 0 C4.95 0 9.9 0 15 0 C15 4.95 15 9.9 15 15 C10.05 15 5.1 15 0 15 C0 10.05 0 5.1 0 0 Z " fill="#FFFFFF" transform="translate(210,330)"/>
<path d="M0 0 C4.95 0 9.9 0 15 0 C15 4.95 15 9.9 15 15 C10.05 15 5.1 15 0 15 C0 10.05 0 5.1 0 0 Z " fill="#EEEEEE" transform="translate(195,330)"/>
<path d="M0 0 C4.95 0 9.9 0 15 0 C15 4.95 15 9.9 15 15 C10.05 15 5.1 15 0 15 C0 10.05 0 5.1 0 0 Z " fill="#FFFFFF" transform="translate(180,330)"/>
<path d="M0 0 C4.95 0 9.9 0 15 0 C15 4.95 15 9.9 15 15 C10.05 15 5.1 15 0 15 C0 10.05 0 5.1 0 0 Z " fill="#EEEEEE" transform="translate(165,330)"/>
<path d="M0 0 C4.95 0 9.9 0 15 0 C15 4.95 15 9.9 15 15 C10.05 15 5.1 15 0 15 C0 10.05 0 5.1 0 0 Z " fill="#FFFFFF" transform="translate(150,330)"/>
<path d="M0 0 C4.95 0 9.9 0 15 0 C15 4.95 15 9.9 15 15 C10.05 15 5.1 15 0 15 C0 10.05 0 5.1 0 0 Z " fill="#FFFFFF" transform="translate(120,330)"/>
<path d="M0 0 C4.95 0 9.9 0 15 0 C15 4.95 15 9.9 15 15 C10.05 15 5.1 15 0 15 C0 10.05 0 5.1 0 0 Z " fill="#FFFFFF" transform="translate(90,330)"/>
<path d="M0 0 C4.95 0 9.9 0 15 0 C15 4.95 15 9.9 15 15 C10.05 15 5.1 15 0 15 C0 10.05 0 5.1 0 0 Z " fill="#EEEEEE" transform="translate(75,330)"/>
<path d="M0 0 C4.95 0 9.9 0 15 0 C15 4.95 15 9.9 15 15 C10.05 15 5.1 15 0 15 C0 10.05 0 5.1 0 0 Z " fill="#FFFFFF" transform="translate(60,330)"/>
<path d="M0 0 C4.95 0 9.9 0 15 0 C15 4.95 15 9.9 15 15 C10.05 15 5.1 15 0 15 C0 10.05 0 5.1 0 0 Z " fill="#EEEEEE" transform="translate(45,330)"/>
<path d="M0 0 C4.95 0 9.9 0 15 0 C15 4.95 15 9.9 15 15 C10.05 15 5.1 15 0 15 C0 10.05 0 5.1 0 0 Z " fill="#FFFFFF" transform="translate(30,330)"/>
<path d="M0 0 C4.95 0 9.9 0 15 0 C15 4.95 15 9.9 15 15 C10.05 15 5.1 15 0 15 C0 10.05 0 5.1 0 0 Z " fill="#EEEEEE" transform="translate(15,330)"/>
<path d="M0 0 C4.95 0 9.9 0 15 0 C15 4.95 15 9.9 15 15 C10.05 15 5.1 15 0 15 C0 10.05 0 5.1 0 0 Z " fill="#FFFFFF" transform="translate(0,330)"/>
<path d="M0 0 C4.95 0 9.9 0 15 0 C15 4.95 15 9.9 15 15 C10.05 15 5.1 15 0 15 C0 10.05 0 5.1 0 0 Z " fill="#FFFFFF" transform="translate(345,315)"/>
<path d="M0 0 C4.95 0 9.9 0 15 0 C15 4.95 15 9.9 15 15 C10.05 15 5.1 15 0 15 C0 10.05 0 5.1 0 0 Z " fill="#EEEEEE" transform="translate(330,315)"/>
<path d="M0 0 C4.95 0 9.9 0 15 0 C15 4.95 15 9.9 15 15 C10.05 15 5.1 15 0 15 C0 10.05 0 5.1 0 0 Z " fill="#FFFFFF" transform="translate(315,315)"/>
<path d="M0 0 C4.95 0 9.9 0 15 0 C15 4.95 15 9.9 15 15 C10.05 15 5.1 15 0 15 C0 10.05 0 5.1 0 0 Z " fill="#FFFFFF" transform="translate(255,315)"/>
<path d="M0 0 C4.95 0 9.9 0 15 0 C15 4.95 15 9.9 15 15 C10.05 15 5.1 15 0 15 C0 10.05 0 5.1 0 0 Z " fill="#EEEEEE" transform="translate(240,315)"/>
<path d="M0 0 C4.95 0 9.9 0 15 0 C15 4.95 15 9.9 15 15 C10.05 15 5.1 15 0 15 C0 10.05 0 5.1 0 0 Z " fill="#FFFFFF" transform="translate(225,315)"/>
<path d="M0 0 C4.95 0 9.9 0 15 0 C15 4.95 15 9.9 15 15 C10.05 15 5.1 15 0 15 C0 10.05 0 5.1 0 0 Z " fill="#EEEEEE" transform="translate(210,315)"/>
<path d="M0 0 C4.95 0 9.9 0 15 0 C15 4.95 15 9.9 15 15 C10.05 15 5.1 15 0 15 C0 10.05 0 5.1 0 0 Z " fill="#FFFFFF" transform="translate(195,315)"/>
<path d="M0 0 C4.95 0 9.9 0 15 0 C15 4.95 15 9.9 15 15 C10.05 15 5.1 15 0 15 C0 10.05 0 5.1 0 0 Z " fill="#EEEEEE" transform="translate(180,315)"/>
<path d="M0 0 C4.95 0 9.9 0 15 0 C15 4.95 15 9.9 15 15 C10.05 15 5.1 15 0 15 C0 10.05 0 5.1 0 0 Z " fill="#FFFFFF" transform="translate(165,315)"/>
<path d="M0 0 C4.95 0 9.9 0 15 0 C15 4.95 15 9.9 15 15 C10.05 15 5.1 15 0 15 C0 10.05 0 5.1 0 0 Z " fill="#EEEEEE" transform="translate(150,315)"/>
<path d="M0 0 C4.95 0 9.9 0 15 0 C15 4.95 15 9.9 15 15 C10.05 15 5.1 15 0 15 C0 10.05 0 5.1 0 0 Z " fill="#FFFFFF" transform="translate(135,315)"/>
<path d="M0 0 C4.95 0 9.9 0 15 0 C15 4.95 15 9.9 15 15 C10.05 15 5.1 15 0 15 C0 10.05 0 5.1 0 0 Z " fill="#FFFFFF" transform="translate(105,315)"/>
<path d="M0 0 C4.95 0 9.9 0 15 0 C15 4.95 15 9.9 15 15 C10.05 15 5.1 15 0 15 C0 10.05 0 5.1 0 0 Z " fill="#FFFFFF" transform="translate(75,315)"/>
<path d="M0 0 C4.95 0 9.9 0 15 0 C15 4.95 15 9.9 15 15 C10.05 15 5.1 15 0 15 C0 10.05 0 5.1 0 0 Z " fill="#EEEEEE" transform="translate(60,315)"/>
<path d="M0 0 C4.95 0 9.9 0 15 0 C15 4.95 15 9.9 15 15 C10.05 15 5.1 15 0 15 C0 10.05 0 5.1 0 0 Z " fill="#FFFFFF" transform="translate(45,315)"/>
<path d="M0 0 C4.95 0 9.9 0 15 0 C15 4.95 15 9.9 15 15 C10.05 15 5.1 15 0 15 C0 10.05 0 5.1 0 0 Z " fill="#EEEEEE" transform="translate(30,315)"/>
<path d="M0 0 C4.95 0 9.9 0 15 0 C15 4.95 15 9.9 15 15 C10.05 15 5.1 15 0 15 C0 10.05 0 5.1 0 0 Z " fill="#FFFFFF" transform="translate(15,315)"/>
<path d="M0 0 C4.95 0 9.9 0 15 0 C15 4.95 15 9.9 15 15 C10.05 15 5.1 15 0 15 C0 10.05 0 5.1 0 0 Z " fill="#EEEEEE" transform="translate(0,315)"/>
<path d="M0 0 C4.95 0 9.9 0 15 0 C15 4.95 15 9.9 15 15 C10.05 15 5.1 15 0 15 C0 10.05 0 5.1 0 0 Z " fill="#EEEEEE" transform="translate(345,300)"/>
<path d="M0 0 C4.95 0 9.9 0 15 0 C15 4.95 15 9.9 15 15 C10.05 15 5.1 15 0 15 C0 10.05 0 5.1 0 0 Z " fill="#FFFFFF" transform="translate(330,300)"/>
<path d="M0 0 C4.95 0 9.9 0 15 0 C15 4.95 15 9.9 15 15 C10.05 15 5.1 15 0 15 C0 10.05 0 5.1 0 0 Z " fill="#EEEEEE" transform="translate(315,300)"/>
<path d="M0 0 C4.95 0 9.9 0 15 0 C15 4.95 15 9.9 15 15 C10.05 15 5.1 15 0 15 C0 10.05 0 5.1 0 0 Z " fill="#FFFFFF" transform="translate(240,300)"/>
<path d="M0 0 C4.95 0 9.9 0 15 0 C15 4.95 15 9.9 15 15 C10.05 15 5.1 15 0 15 C0 10.05 0 5.1 0 0 Z " fill="#EEEEEE" transform="translate(225,300)"/>
<path d="M0 0 C4.95 0 9.9 0 15 0 C15 4.95 15 9.9 15 15 C10.05 15 5.1 15 0 15 C0 10.05 0 5.1 0 0 Z " fill="#FFFFFF" transform="translate(210,300)"/>
<path d="M0 0 C4.95 0 9.9 0 15 0 C15 4.95 15 9.9 15 15 C10.05 15 5.1 15 0 15 C0 10.05 0 5.1 0 0 Z " fill="#EEEEEE" transform="translate(195,300)"/>
<path d="M0 0 C4.95 0 9.9 0 15 0 C15 4.95 15 9.9 15 15 C10.05 15 5.1 15 0 15 C0 10.05 0 5.1 0 0 Z " fill="#FFFFFF" transform="translate(180,300)"/>
<path d="M0 0 C4.95 0 9.9 0 15 0 C15 4.95 15 9.9 15 15 C10.05 15 5.1 15 0 15 C0 10.05 0 5.1 0 0 Z " fill="#EEEEEE" transform="translate(165,300)"/>
<path d="M0 0 C4.95 0 9.9 0 15 0 C15 4.95 15 9.9 15 15 C10.05 15 5.1 15 0 15 C0 10.05 0 5.1 0 0 Z " fill="#FFFFFF" transform="translate(150,300)"/>
<path d="M0 0 C4.95 0 9.9 0 15 0 C15 4.95 15 9.9 15 15 C10.05 15 5.1 15 0 15 C0 10.05 0 5.1 0 0 Z " fill="#EEEEEE" transform="translate(135,300)"/>
<path d="M0 0 C4.95 0 9.9 0 15 0 C15 4.95 15 9.9 15 15 C10.05 15 5.1 15 0 15 C0 10.05 0 5.1 0 0 Z " fill="#FFFFFF" transform="translate(120,300)"/>
<path d="M0 0 C4.95 0 9.9 0 15 0 C15 4.95 15 9.9 15 15 C10.05 15 5.1 15 0 15 C0 10.05 0 5.1 0 0 Z " fill="#FFFFFF" transform="translate(60,300)"/>
<path d="M0 0 C4.95 0 9.9 0 15 0 C15 4.95 15 9.9 15 15 C10.05 15 5.1 15 0 15 C0 10.05 0 5.1 0 0 Z " fill="#EEEEEE" transform="translate(45,300)"/>
<path d="M0 0 C4.95 0 9.9 0 15 0 C15 4.95 15 9.9 15 15 C10.05 15 5.1 15 0 15 C0 10.05 0 5.1 0 0 Z " fill="#FFFFFF" transform="translate(30,300)"/>
<path d="M0 0 C4.95 0 9.9 0 15 0 C15 4.95 15 9.9 15 15 C10.05 15 5.1 15 0 15 C0 10.05 0 5.1 0 0 Z " fill="#EEEEEE" transform="translate(15,300)"/>
<path d="M0 0 C4.95 0 9.9 0 15 0 C15 4.95 15 9.9 15 15 C10.05 15 5.1 15 0 15 C0 10.05 0 5.1 0 0 Z " fill="#FFFFFF" transform="translate(0,300)"/>
<path d="M0 0 C4.95 0 9.9 0 15 0 C15 4.95 15 9.9 15 15 C10.05 15 5.1 15 0 15 C0 10.05 0 5.1 0 0 Z " fill="#FFFFFF" transform="translate(345,285)"/>
<path d="M0 0 C4.95 0 9.9 0 15 0 C15 4.95 15 9.9 15 15 C10.05 15 5.1 15 0 15 C0 10.05 0 5.1 0 0 Z " fill="#FFFFFF" transform="translate(315,285)"/>
<path d="M0 0 C4.95 0 9.9 0 15 0 C15 4.95 15 9.9 15 15 C10.05 15 5.1 15 0 15 C0 10.05 0 5.1 0 0 Z " fill="#FFFFFF" transform="translate(135,285)"/>
<path d="M0 0 C4.95 0 9.9 0 15 0 C15 4.95 15 9.9 15 15 C10.05 15 5.1 15 0 15 C0 10.05 0 5.1 0 0 Z " fill="#EEEEEE" transform="translate(120,285)"/>
<path d="M0 0 C4.95 0 9.9 0 15 0 C15 4.95 15 9.9 15 15 C10.05 15 5.1 15 0 15 C0 10.05 0 5.1 0 0 Z " fill="#EEEEEE" transform="translate(60,285)"/>
<path d="M0 0 C4.95 0 9.9 0 15 0 C15 4.95 15 9.9 15 15 C10.05 15 5.1 15 0 15 C0 10.05 0 5.1 0 0 Z " fill="#FFFFFF" transform="translate(45,285)"/>
<path d="M0 0 C4.95 0 9.9 0 15 0 C15 4.95 15 9.9 15 15 C10.05 15 5.1 15 0 15 C0 10.05 0 5.1 0 0 Z " fill="#EEEEEE" transform="translate(30,285)"/>
<path d="M0 0 C4.95 0 9.9 0 15 0 C15 4.95 15 9.9 15 15 C10.05 15 5.1 15 0 15 C0 10.05 0 5.1 0 0 Z " fill="#FFFFFF" transform="translate(15,285)"/>
<path d="M0 0 C4.95 0 9.9 0 15 0 C15 4.95 15 9.9 15 15 C10.05 15 5.1 15 0 15 C0 10.05 0 5.1 0 0 Z " fill="#EEEEEE" transform="translate(0,285)"/>
<path d="M0 0 C4.95 0 9.9 0 15 0 C15 4.95 15 9.9 15 15 C10.05 15 5.1 15 0 15 C0 10.05 0 5.1 0 0 Z " fill="#EEEEEE" transform="translate(345,270)"/>
<path d="M0 0 C4.95 0 9.9 0 15 0 C15 4.95 15 9.9 15 15 C10.05 15 5.1 15 0 15 C0 10.05 0 5.1 0 0 Z " fill="#EEEEEE" transform="translate(135,270)"/>
<path d="M0 0 C4.95 0 9.9 0 15 0 C15 4.95 15 9.9 15 15 C10.05 15 5.1 15 0 15 C0 10.05 0 5.1 0 0 Z " fill="#FFFFFF" transform="translate(60,270)"/>
<path d="M0 0 C4.95 0 9.9 0 15 0 C15 4.95 15 9.9 15 15 C10.05 15 5.1 15 0 15 C0 10.05 0 5.1 0 0 Z " fill="#EEEEEE" transform="translate(45,270)"/>
<path d="M0 0 C4.95 0 9.9 0 15 0 C15 4.95 15 9.9 15 15 C10.05 15 5.1 15 0 15 C0 10.05 0 5.1 0 0 Z " fill="#FFFFFF" transform="translate(30,270)"/>
<path d="M0 0 C4.95 0 9.9 0 15 0 C15 4.95 15 9.9 15 15 C10.05 15 5.1 15 0 15 C0 10.05 0 5.1 0 0 Z " fill="#EEEEEE" transform="translate(15,270)"/>
<path d="M0 0 C4.95 0 9.9 0 15 0 C15 4.95 15 9.9 15 15 C10.05 15 5.1 15 0 15 C0 10.05 0 5.1 0 0 Z " fill="#FFFFFF" transform="translate(0,270)"/>
<path d="M0 0 C4.95 0 9.9 0 15 0 C15 4.95 15 9.9 15 15 C10.05 15 5.1 15 0 15 C0 10.05 0 5.1 0 0 Z " fill="#FFFFFF" transform="translate(345,255)"/>
<path d="M0 0 C4.95 0 9.9 0 15 0 C15 4.95 15 9.9 15 15 C10.05 15 5.1 15 0 15 C0 10.05 0 5.1 0 0 Z " fill="#EEEEEE" transform="translate(60,255)"/>
<path d="M0 0 C4.95 0 9.9 0 15 0 C15 4.95 15 9.9 15 15 C10.05 15 5.1 15 0 15 C0 10.05 0 5.1 0 0 Z " fill="#FFFFFF" transform="translate(45,255)"/>
<path d="M0 0 C4.95 0 9.9 0 15 0 C15 4.95 15 9.9 15 15 C10.05 15 5.1 15 0 15 C0 10.05 0 5.1 0 0 Z " fill="#EEEEEE" transform="translate(30,255)"/>
<path d="M0 0 C4.95 0 9.9 0 15 0 C15 4.95 15 9.9 15 15 C10.05 15 5.1 15 0 15 C0 10.05 0 5.1 0 0 Z " fill="#FFFFFF" transform="translate(15,255)"/>
<path d="M0 0 C4.95 0 9.9 0 15 0 C15 4.95 15 9.9 15 15 C10.05 15 5.1 15 0 15 C0 10.05 0 5.1 0 0 Z " fill="#EEEEEE" transform="translate(0,255)"/>
<path d="M0 0 C4.95 0 9.9 0 15 0 C15 4.95 15 9.9 15 15 C10.05 15 5.1 15 0 15 C0 10.05 0 5.1 0 0 Z " fill="#EEEEEE" transform="translate(345,240)"/>
<path d="M0 0 C4.95 0 9.9 0 15 0 C15 4.95 15 9.9 15 15 C10.05 15 5.1 15 0 15 C0 10.05 0 5.1 0 0 Z " fill="#EEEEEE" transform="translate(45,240)"/>
<path d="M0 0 C4.95 0 9.9 0 15 0 C15 4.95 15 9.9 15 15 C10.05 15 5.1 15 0 15 C0 10.05 0 5.1 0 0 Z " fill="#FFFFFF" transform="translate(30,240)"/>
<path d="M0 0 C4.95 0 9.9 0 15 0 C15 4.95 15 9.9 15 15 C10.05 15 5.1 15 0 15 C0 10.05 0 5.1 0 0 Z " fill="#EEEEEE" transform="translate(15,240)"/>
<path d="M0 0 C4.95 0 9.9 0 15 0 C15 4.95 15 9.9 15 15 C10.05 15 5.1 15 0 15 C0 10.05 0 5.1 0 0 Z " fill="#FFFFFF" transform="translate(0,240)"/>
<path d="M0 0 C4.95 0 9.9 0 15 0 C15 4.95 15 9.9 15 15 C10.05 15 5.1 15 0 15 C0 10.05 0 5.1 0 0 Z " fill="#FFFFFF" transform="translate(345,225)"/>
<path d="M0 0 C4.95 0 9.9 0 15 0 C15 4.95 15 9.9 15 15 C10.05 15 5.1 15 0 15 C0 10.05 0 5.1 0 0 Z " fill="#FFFFFF" transform="translate(15,225)"/>
<path d="M0 0 C4.95 0 9.9 0 15 0 C15 4.95 15 9.9 15 15 C10.05 15 5.1 15 0 15 C0 10.05 0 5.1 0 0 Z " fill="#EEEEEE" transform="translate(0,225)"/>
<path d="M0 0 C4.95 0 9.9 0 15 0 C15 4.95 15 9.9 15 15 C10.05 15 5.1 15 0 15 C0 10.05 0 5.1 0 0 Z " fill="#EEEEEE" transform="translate(345,210)"/>
<path d="M0 0 C4.95 0 9.9 0 15 0 C15 4.95 15 9.9 15 15 C10.05 15 5.1 15 0 15 C0 10.05 0 5.1 0 0 Z " fill="#EEEEEE" transform="translate(15,210)"/>
<path d="M0 0 C4.95 0 9.9 0 15 0 C15 4.95 15 9.9 15 15 C10.05 15 5.1 15 0 15 C0 10.05 0 5.1 0 0 Z " fill="#FFFFFF" transform="translate(0,210)"/>
<path d="M0 0 C4.95 0 9.9 0 15 0 C15 4.95 15 9.9 15 15 C10.05 15 5.1 15 0 15 C0 10.05 0 5.1 0 0 Z " fill="#FFFFFF" transform="translate(345,195)"/>
<path d="M0 0 C4.95 0 9.9 0 15 0 C15 4.95 15 9.9 15 15 C10.05 15 5.1 15 0 15 C0 10.05 0 5.1 0 0 Z " fill="#EEEEEE" transform="translate(0,195)"/>
<path d="M0 0 C4.95 0 9.9 0 15 0 C15 4.95 15 9.9 15 15 C10.05 15 5.1 15 0 15 C0 10.05 0 5.1 0 0 Z " fill="#EEEEEE" transform="translate(345,180)"/>
<path d="M0 0 C4.95 0 9.9 0 15 0 C15 4.95 15 9.9 15 15 C10.05 15 5.1 15 0 15 C0 10.05 0 5.1 0 0 Z " fill="#FFFFFF" transform="translate(0,180)"/>
<path d="M0 0 C4.95 0 9.9 0 15 0 C15 4.95 15 9.9 15 15 C10.05 15 5.1 15 0 15 C0 10.05 0 5.1 0 0 Z " fill="#FFFFFF" transform="translate(345,165)"/>
<path d="M0 0 C4.95 0 9.9 0 15 0 C15 4.95 15 9.9 15 15 C10.05 15 5.1 15 0 15 C0 10.05 0 5.1 0 0 Z " fill="#EEEEEE" transform="translate(0,165)"/>
<path d="M0 0 C4.95 0 9.9 0 15 0 C15 4.95 15 9.9 15 15 C10.05 15 5.1 15 0 15 C0 10.05 0 5.1 0 0 Z " fill="#EEEEEE" transform="translate(345,150)"/>
<path d="M0 0 C4.95 0 9.9 0 15 0 C15 4.95 15 9.9 15 15 C10.05 15 5.1 15 0 15 C0 10.05 0 5.1 0 0 Z " fill="#FFFFFF" transform="translate(330,150)"/>
<path d="M0 0 C4.95 0 9.9 0 15 0 C15 4.95 15 9.9 15 15 C10.05 15 5.1 15 0 15 C0 10.05 0 5.1 0 0 Z " fill="#FEFEFE" transform="translate(0,150)"/>
<path d="M0 0 C4.95 0 9.9 0 15 0 C15 4.95 15 9.9 15 15 C10.05 15 5.1 15 0 15 C0 10.05 0 5.1 0 0 Z " fill="#FFFFFF" transform="translate(345,135)"/>
<path d="M0 0 C4.95 0 9.9 0 15 0 C15 4.95 15 9.9 15 15 C10.05 15 5.1 15 0 15 C0 10.05 0 5.1 0 0 Z " fill="#EEEEEE" transform="translate(330,135)"/>
<path d="M0 0 C4.95 0 9.9 0 15 0 C15 4.95 15 9.9 15 15 C10.05 15 5.1 15 0 15 C0 10.05 0 5.1 0 0 Z " fill="#EEEEEE" transform="translate(0,135)"/>
<path d="M0 0 C4.95 0 9.9 0 15 0 C15 4.95 15 9.9 15 15 C10.05 15 5.1 15 0 15 C0 10.05 0 5.1 0 0 Z " fill="#FFFFFF" transform="translate(330,120)"/>
<path d="M0 0 C4.95 0 9.9 0 15 0 C15 4.95 15 9.9 15 15 C10.05 15 5.1 15 0 15 C0 10.05 0 5.1 0 0 Z " fill="#FEFEFE" transform="translate(0,120)"/>
<path d="M0 0 C4.95 0 9.9 0 15 0 C15 4.95 15 9.9 15 15 C10.05 15 5.1 15 0 15 C0 10.05 0 5.1 0 0 Z " fill="#FFFFFF" transform="translate(345,105)"/>
<path d="M0 0 C4.95 0 9.9 0 15 0 C15 4.95 15 9.9 15 15 C10.05 15 5.1 15 0 15 C0 10.05 0 5.1 0 0 Z " fill="#EEEEEE" transform="translate(345,90)"/>
<path d="M0 0 C4.95 0 9.9 0 15 0 C15 4.95 15 9.9 15 15 C10.05 15 5.1 15 0 15 C0 10.05 0 5.1 0 0 Z " fill="#FFFFFF" transform="translate(330,90)"/>
<path d="M0 0 C4.95 0 9.9 0 15 0 C15 4.95 15 9.9 15 15 C10.05 15 5.1 15 0 15 C0 10.05 0 5.1 0 0 Z " fill="#FFFFFF" transform="translate(0,90)"/>
<path d="M0 0 C4.95 0 9.9 0 15 0 C15 4.95 15 9.9 15 15 C10.05 15 5.1 15 0 15 C0 10.05 0 5.1 0 0 Z " fill="#FFFFFF" transform="translate(345,75)"/>
<path d="M0 0 C4.95 0 9.9 0 15 0 C15 4.95 15 9.9 15 15 C10.05 15 5.1 15 0 15 C0 10.05 0 5.1 0 0 Z " fill="#EEEEEE" transform="translate(330,75)"/>
<path d="M0 0 C4.95 0 9.9 0 15 0 C15 4.95 15 9.9 15 15 C10.05 15 5.1 15 0 15 C0 10.05 0 5.1 0 0 Z " fill="#FFFFFF" transform="translate(315,75)"/>
<path d="M0 0 C4.95 0 9.9 0 15 0 C15 4.95 15 9.9 15 15 C10.05 15 5.1 15 0 15 C0 10.05 0 5.1 0 0 Z " fill="#EEEEEE" transform="translate(0,75)"/>
<path d="M0 0 C4.95 0 9.9 0 15 0 C15 4.95 15 9.9 15 15 C10.05 15 5.1 15 0 15 C0 10.05 0 5.1 0 0 Z " fill="#EEEEEE" transform="translate(345,60)"/>
<path d="M0 0 C4.95 0 9.9 0 15 0 C15 4.95 15 9.9 15 15 C10.05 15 5.1 15 0 15 C0 10.05 0 5.1 0 0 Z " fill="#FFFFFF" transform="translate(330,60)"/>
<path d="M0 0 C4.95 0 9.9 0 15 0 C15 4.95 15 9.9 15 15 C10.05 15 5.1 15 0 15 C0 10.05 0 5.1 0 0 Z " fill="#EEEEEE" transform="translate(315,60)"/>
<path d="M0 0 C4.95 0 9.9 0 15 0 C15 4.95 15 9.9 15 15 C10.05 15 5.1 15 0 15 C0 10.05 0 5.1 0 0 Z " fill="#EEEEEE" transform="translate(15,60)"/>
<path d="M0 0 C4.95 0 9.9 0 15 0 C15 4.95 15 9.9 15 15 C10.05 15 5.1 15 0 15 C0 10.05 0 5.1 0 0 Z " fill="#FFFFFF" transform="translate(0,60)"/>
<path d="M0 0 C4.95 0 9.9 0 15 0 C15 4.95 15 9.9 15 15 C10.05 15 5.1 15 0 15 C0 10.05 0 5.1 0 0 Z " fill="#FFFFFF" transform="translate(345,45)"/>
<path d="M0 0 C4.95 0 9.9 0 15 0 C15 4.95 15 9.9 15 15 C10.05 15 5.1 15 0 15 C0 10.05 0 5.1 0 0 Z " fill="#EEEEEE" transform="translate(330,45)"/>
<path d="M0 0 C4.95 0 9.9 0 15 0 C15 4.95 15 9.9 15 15 C10.05 15 5.1 15 0 15 C0 10.05 0 5.1 0 0 Z " fill="#FFFFFF" transform="translate(315,45)"/>
<path d="M0 0 C4.95 0 9.9 0 15 0 C15 4.95 15 9.9 15 15 C10.05 15 5.1 15 0 15 C0 10.05 0 5.1 0 0 Z " fill="#EEEEEE" transform="translate(300,45)"/>
<path d="M0 0 C4.95 0 9.9 0 15 0 C15 4.95 15 9.9 15 15 C10.05 15 5.1 15 0 15 C0 10.05 0 5.1 0 0 Z " fill="#EEEEEE" transform="translate(30,45)"/>
<path d="M0 0 C4.95 0 9.9 0 15 0 C15 4.95 15 9.9 15 15 C10.05 15 5.1 15 0 15 C0 10.05 0 5.1 0 0 Z " fill="#FFFFFF" transform="translate(15,45)"/>
<path d="M0 0 C4.95 0 9.9 0 15 0 C15 4.95 15 9.9 15 15 C10.05 15 5.1 15 0 15 C0 10.05 0 5.1 0 0 Z " fill="#EEEEEE" transform="translate(0,45)"/>
<path d="M0 0 C4.95 0 9.9 0 15 0 C15 4.95 15 9.9 15 15 C10.05 15 5.1 15 0 15 C0 10.05 0 5.1 0 0 Z " fill="#EEEEEE" transform="translate(345,30)"/>
<path d="M0 0 C4.95 0 9.9 0 15 0 C15 4.95 15 9.9 15 15 C10.05 15 5.1 15 0 15 C0 10.05 0 5.1 0 0 Z " fill="#FFFFFF" transform="translate(330,30)"/>
<path d="M0 0 C4.95 0 9.9 0 15 0 C15 4.95 15 9.9 15 15 C10.05 15 5.1 15 0 15 C0 10.05 0 5.1 0 0 Z " fill="#EEEEEE" transform="translate(315,30)"/>
<path d="M0 0 C4.95 0 9.9 0 15 0 C15 4.95 15 9.9 15 15 C10.05 15 5.1 15 0 15 C0 10.05 0 5.1 0 0 Z " fill="#FFFFFF" transform="translate(300,30)"/>
<path d="M0 0 C4.95 0 9.9 0 15 0 C15 4.95 15 9.9 15 15 C10.05 15 5.1 15 0 15 C0 10.05 0 5.1 0 0 Z " fill="#EEEEEE" transform="translate(285,30)"/>
<path d="M0 0 C4.95 0 9.9 0 15 0 C15 4.95 15 9.9 15 15 C10.05 15 5.1 15 0 15 C0 10.05 0 5.1 0 0 Z " fill="#FFFFFF" transform="translate(270,30)"/>
<path d="M0 0 C4.95 0 9.9 0 15 0 C15 4.95 15 9.9 15 15 C10.05 15 5.1 15 0 15 C0 10.05 0 5.1 0 0 Z " fill="#EEEEEE" transform="translate(225,30)"/>
<path d="M0 0 C4.95 0 9.9 0 15 0 C15 4.95 15 9.9 15 15 C10.05 15 5.1 15 0 15 C0 10.05 0 5.1 0 0 Z " fill="#EEEEEE" transform="translate(195,30)"/>
<path d="M0 0 C4.95 0 9.9 0 15 0 C15 4.95 15 9.9 15 15 C10.05 15 5.1 15 0 15 C0 10.05 0 5.1 0 0 Z " fill="#EEEEEE" transform="translate(165,30)"/>
<path d="M0 0 C4.95 0 9.9 0 15 0 C15 4.95 15 9.9 15 15 C10.05 15 5.1 15 0 15 C0 10.05 0 5.1 0 0 Z " fill="#EEEEEE" transform="translate(135,30)"/>
<path d="M0 0 C4.95 0 9.9 0 15 0 C15 4.95 15 9.9 15 15 C10.05 15 5.1 15 0 15 C0 10.05 0 5.1 0 0 Z " fill="#FFFFFF" transform="translate(60,30)"/>
<path d="M0 0 C4.95 0 9.9 0 15 0 C15 4.95 15 9.9 15 15 C10.05 15 5.1 15 0 15 C0 10.05 0 5.1 0 0 Z " fill="#EEEEEE" transform="translate(45,30)"/>
<path d="M0 0 C4.95 0 9.9 0 15 0 C15 4.95 15 9.9 15 15 C10.05 15 5.1 15 0 15 C0 10.05 0 5.1 0 0 Z " fill="#FFFFFF" transform="translate(30,30)"/>
<path d="M0 0 C4.95 0 9.9 0 15 0 C15 4.95 15 9.9 15 15 C10.05 15 5.1 15 0 15 C0 10.05 0 5.1 0 0 Z " fill="#EEEEEE" transform="translate(15,30)"/>
<path d="M0 0 C4.95 0 9.9 0 15 0 C15 4.95 15 9.9 15 15 C10.05 15 5.1 15 0 15 C0 10.05 0 5.1 0 0 Z " fill="#FFFFFF" transform="translate(0,30)"/>
<path d="M0 0 C4.95 0 9.9 0 15 0 C15 4.95 15 9.9 15 15 C10.05 15 5.1 15 0 15 C0 10.05 0 5.1 0 0 Z " fill="#FFFFFF" transform="translate(345,15)"/>
<path d="M0 0 C4.95 0 9.9 0 15 0 C15 4.95 15 9.9 15 15 C10.05 15 5.1 15 0 15 C0 10.05 0 5.1 0 0 Z " fill="#EEEEEE" transform="translate(330,15)"/>
<path d="M0 0 C4.95 0 9.9 0 15 0 C15 4.95 15 9.9 15 15 C10.05 15 5.1 15 0 15 C0 10.05 0 5.1 0 0 Z " fill="#FFFFFF" transform="translate(315,15)"/>
<path d="M0 0 C4.95 0 9.9 0 15 0 C15 4.95 15 9.9 15 15 C10.05 15 5.1 15 0 15 C0 10.05 0 5.1 0 0 Z " fill="#EEEEEE" transform="translate(300,15)"/>
<path d="M0 0 C4.95 0 9.9 0 15 0 C15 4.95 15 9.9 15 15 C10.05 15 5.1 15 0 15 C0 10.05 0 5.1 0 0 Z " fill="#FFFFFF" transform="translate(285,15)"/>
<path d="M0 0 C4.95 0 9.9 0 15 0 C15 4.95 15 9.9 15 15 C10.05 15 5.1 15 0 15 C0 10.05 0 5.1 0 0 Z " fill="#EEEEEE" transform="translate(270,15)"/>
<path d="M0 0 C4.95 0 9.9 0 15 0 C15 4.95 15 9.9 15 15 C10.05 15 5.1 15 0 15 C0 10.05 0 5.1 0 0 Z " fill="#FFFFFF" transform="translate(255,15)"/>
<path d="M0 0 C4.95 0 9.9 0 15 0 C15 4.95 15 9.9 15 15 C10.05 15 5.1 15 0 15 C0 10.05 0 5.1 0 0 Z " fill="#EEEEEE" transform="translate(240,15)"/>
<path d="M0 0 C4.95 0 9.9 0 15 0 C15 4.95 15 9.9 15 15 C10.05 15 5.1 15 0 15 C0 10.05 0 5.1 0 0 Z " fill="#FFFFFF" transform="translate(225,15)"/>
<path d="M0 0 C4.95 0 9.9 0 15 0 C15 4.95 15 9.9 15 15 C10.05 15 5.1 15 0 15 C0 10.05 0 5.1 0 0 Z " fill="#EEEEEE" transform="translate(210,15)"/>
<path d="M0 0 C4.95 0 9.9 0 15 0 C15 4.95 15 9.9 15 15 C10.05 15 5.1 15 0 15 C0 10.05 0 5.1 0 0 Z " fill="#FFFFFF" transform="translate(195,15)"/>
<path d="M0 0 C4.95 0 9.9 0 15 0 C15 4.95 15 9.9 15 15 C10.05 15 5.1 15 0 15 C0 10.05 0 5.1 0 0 Z " fill="#EEEEEE" transform="translate(180,15)"/>
<path d="M0 0 C4.95 0 9.9 0 15 0 C15 4.95 15 9.9 15 15 C10.05 15 5.1 15 0 15 C0 10.05 0 5.1 0 0 Z " fill="#FFFFFF" transform="translate(165,15)"/>
<path d="M0 0 C4.95 0 9.9 0 15 0 C15 4.95 15 9.9 15 15 C10.05 15 5.1 15 0 15 C0 10.05 0 5.1 0 0 Z " fill="#EEEEEE" transform="translate(150,15)"/>
<path d="M0 0 C4.95 0 9.9 0 15 0 C15 4.95 15 9.9 15 15 C10.05 15 5.1 15 0 15 C0 10.05 0 5.1 0 0 Z " fill="#FFFFFF" transform="translate(135,15)"/>
<path d="M0 0 C4.95 0 9.9 0 15 0 C15 4.95 15 9.9 15 15 C10.05 15 5.1 15 0 15 C0 10.05 0 5.1 0 0 Z " fill="#EEEEEE" transform="translate(120,15)"/>
<path d="M0 0 C4.95 0 9.9 0 15 0 C15 4.95 15 9.9 15 15 C10.05 15 5.1 15 0 15 C0 10.05 0 5.1 0 0 Z " fill="#FFFFFF" transform="translate(105,15)"/>
<path d="M0 0 C4.95 0 9.9 0 15 0 C15 4.95 15 9.9 15 15 C10.05 15 5.1 15 0 15 C0 10.05 0 5.1 0 0 Z " fill="#FFFFFF" transform="translate(75,15)"/>
<path d="M0 0 C4.95 0 9.9 0 15 0 C15 4.95 15 9.9 15 15 C10.05 15 5.1 15 0 15 C0 10.05 0 5.1 0 0 Z " fill="#EEEEEE" transform="translate(60,15)"/>
<path d="M0 0 C4.95 0 9.9 0 15 0 C15 4.95 15 9.9 15 15 C10.05 15 5.1 15 0 15 C0 10.05 0 5.1 0 0 Z " fill="#FFFFFF" transform="translate(45,15)"/>
<path d="M0 0 C4.95 0 9.9 0 15 0 C15 4.95 15 9.9 15 15 C10.05 15 5.1 15 0 15 C0 10.05 0 5.1 0 0 Z " fill="#EEEEEE" transform="translate(30,15)"/>
<path d="M0 0 C4.95 0 9.9 0 15 0 C15 4.95 15 9.9 15 15 C10.05 15 5.1 15 0 15 C0 10.05 0 5.1 0 0 Z " fill="#FFFFFF" transform="translate(15,15)"/>
<path d="M0 0 C4.95 0 9.9 0 15 0 C15 4.95 15 9.9 15 15 C10.05 15 5.1 15 0 15 C0 10.05 0 5.1 0 0 Z " fill="#EEEEEE" transform="translate(0,15)"/>
<path d="M0 0 C4.95 0 9.9 0 15 0 C15 4.95 15 9.9 15 15 C10.05 15 5.1 15 0 15 C0 10.05 0 5.1 0 0 Z " fill="#EEEEEE" transform="translate(345,0)"/>
<path d="M0 0 C4.95 0 9.9 0 15 0 C15 4.95 15 9.9 15 15 C10.05 15 5.1 15 0 15 C0 10.05 0 5.1 0 0 Z " fill="#FFFFFF" transform="translate(330,0)"/>
<path d="M0 0 C4.95 0 9.9 0 15 0 C15 4.95 15 9.9 15 15 C10.05 15 5.1 15 0 15 C0 10.05 0 5.1 0 0 Z " fill="#EEEEEE" transform="translate(315,0)"/>
<path d="M0 0 C4.95 0 9.9 0 15 0 C15 4.95 15 9.9 15 15 C10.05 15 5.1 15 0 15 C0 10.05 0 5.1 0 0 Z " fill="#FFFFFF" transform="translate(300,0)"/>
<path d="M0 0 C4.95 0 9.9 0 15 0 C15 4.95 15 9.9 15 15 C10.05 15 5.1 15 0 15 C0 10.05 0 5.1 0 0 Z " fill="#EEEEEE" transform="translate(285,0)"/>
<path d="M0 0 C4.95 0 9.9 0 15 0 C15 4.95 15 9.9 15 15 C10.05 15 5.1 15 0 15 C0 10.05 0 5.1 0 0 Z " fill="#FFFFFF" transform="translate(270,0)"/>
<path d="M0 0 C4.95 0 9.9 0 15 0 C15 4.95 15 9.9 15 15 C10.05 15 5.1 15 0 15 C0 10.05 0 5.1 0 0 Z " fill="#EEEEEE" transform="translate(255,0)"/>
<path d="M0 0 C4.95 0 9.9 0 15 0 C15 4.95 15 9.9 15 15 C10.05 15 5.1 15 0 15 C0 10.05 0 5.1 0 0 Z " fill="#FFFFFF" transform="translate(240,0)"/>
<path d="M0 0 C4.95 0 9.9 0 15 0 C15 4.95 15 9.9 15 15 C10.05 15 5.1 15 0 15 C0 10.05 0 5.1 0 0 Z " fill="#EEEEEE" transform="translate(225,0)"/>
<path d="M0 0 C4.95 0 9.9 0 15 0 C15 4.95 15 9.9 15 15 C10.05 15 5.1 15 0 15 C0 10.05 0 5.1 0 0 Z " fill="#FFFFFF" transform="translate(210,0)"/>
<path d="M0 0 C4.95 0 9.9 0 15 0 C15 4.95 15 9.9 15 15 C10.05 15 5.1 15 0 15 C0 10.05 0 5.1 0 0 Z " fill="#EEEEEE" transform="translate(195,0)"/>
<path d="M0 0 C4.95 0 9.9 0 15 0 C15 4.95 15 9.9 15 15 C10.05 15 5.1 15 0 15 C0 10.05 0 5.1 0 0 Z " fill="#FFFFFF" transform="translate(180,0)"/>
<path d="M0 0 C4.95 0 9.9 0 15 0 C15 4.95 15 9.9 15 15 C10.05 15 5.1 15 0 15 C0 10.05 0 5.1 0 0 Z " fill="#EEEEEE" transform="translate(165,0)"/>
<path d="M0 0 C4.95 0 9.9 0 15 0 C15 4.95 15 9.9 15 15 C10.05 15 5.1 15 0 15 C0 10.05 0 5.1 0 0 Z " fill="#FFFFFF" transform="translate(150,0)"/>
<path d="M0 0 C4.95 0 9.9 0 15 0 C15 4.95 15 9.9 15 15 C10.05 15 5.1 15 0 15 C0 10.05 0 5.1 0 0 Z " fill="#EEEEEE" transform="translate(135,0)"/>
<path d="M0 0 C4.95 0 9.9 0 15 0 C15 4.95 15 9.9 15 15 C10.05 15 5.1 15 0 15 C0 10.05 0 5.1 0 0 Z " fill="#FFFFFF" transform="translate(120,0)"/>
<path d="M0 0 C4.95 0 9.9 0 15 0 C15 4.95 15 9.9 15 15 C10.05 15 5.1 15 0 15 C0 10.05 0 5.1 0 0 Z " fill="#EEEEEE" transform="translate(105,0)"/>
<path d="M0 0 C4.95 0 9.9 0 15 0 C15 4.95 15 9.9 15 15 C10.05 15 5.1 15 0 15 C0 10.05 0 5.1 0 0 Z " fill="#FFFFFF" transform="translate(90,0)"/>
<path d="M0 0 C4.95 0 9.9 0 15 0 C15 4.95 15 9.9 15 15 C10.05 15 5.1 15 0 15 C0 10.05 0 5.1 0 0 Z " fill="#EEEEEE" transform="translate(75,0)"/>
<path d="M0 0 C4.95 0 9.9 0 15 0 C15 4.95 15 9.9 15 15 C10.05 15 5.1 15 0 15 C0 10.05 0 5.1 0 0 Z " fill="#FFFFFF" transform="translate(60,0)"/>
<path d="M0 0 C4.95 0 9.9 0 15 0 C15 4.95 15 9.9 15 15 C10.05 15 5.1 15 0 15 C0 10.05 0 5.1 0 0 Z " fill="#EEEEEE" transform="translate(45,0)"/>
<path d="M0 0 C4.95 0 9.9 0 15 0 C15 4.95 15 9.9 15 15 C10.05 15 5.1 15 0 15 C0 10.05 0 5.1 0 0 Z " fill="#FFFFFF" transform="translate(30,0)"/>
<path d="M0 0 C4.95 0 9.9 0 15 0 C15 4.95 15 9.9 15 15 C10.05 15 5.1 15 0 15 C0 10.05 0 5.1 0 0 Z " fill="#FFFFFF" transform="translate(0,0)"/>
<path d="M0 0 C4.95 0 9.9 0 15 0 C15 4.95 15 9.9 15 15 C8.565 15.495 8.565 15.495 2 16 C-0.37571932 10.06070169 -0.1525646 6.33143085 0 0 Z " fill="#EDEDED" transform="translate(330,165)"/>
<path d="M0 0 C11.3877551 -0.36734694 11.3877551 -0.36734694 13.875 1.125 C16.28300744 5.13834573 15.14460124 10.51736163 15 15 C10.05 15 5.1 15 0 15 C0 10.05 0 5.1 0 0 Z " fill="#EEEEEE" transform="translate(30,225)"/>
<path d="M0 0 C4.29 0 8.58 0 13 0 C13 4.95 13 9.9 13 15 C8.05 15 3.1 15 -2 15 C-2.18246543 8.97864092 -1.97754847 5.93264541 0 0 Z " fill="#EEEEEE" transform="translate(302,315)"/>
<path d="M0 0 C5.98993047 -0.3152595 9.63560356 0.31780178 15 3 C15 6.96 15 10.92 15 15 C10.05 15 5.1 15 0 15 C0 10.05 0 5.1 0 0 Z " fill="#EEEEEE" transform="translate(75,300)"/>
<path d="M0 0 C2.03448779 0.41740567 4.05401678 0.90895178 6.0625 1.4375 C7.71958984 1.86869141 7.71958984 1.86869141 9.41015625 2.30859375 C10.26480469 2.53675781 11.11945313 2.76492188 12 3 C12 3.66 12 4.32 12 5 C12.66 5 13.32 5 14 5 C14 8.63 14 12.26 14 16 C9.05 16 4.1 16 -1 16 C-1.020625 13.545625 -1.04125 11.09125 -1.0625 8.5625 C-1.071604 7.78849854 -1.08070801 7.01449707 -1.09008789 6.21704102 C-1.09724913 4.47778283 -1.05024702 2.73854696 -1 1 C-0.67 0.67 -0.34 0.34 0 0 Z " fill="#EEEEEE" transform="translate(181,284)"/>
<path d="M0 0 C0.21432579 6.64409958 -0.48766299 12.53205867 -2 19 C-2.33 18.01 -2.66 17.02 -3 16 C-6.3 16 -9.6 16 -13 16 C-13 11.05 -13 6.1 -13 1 C-1.125 0 -1.125 0 0 0 Z " fill="#FEFEFE" transform="translate(88,254)"/>
<path d="M0 0 C1.76537109 -0.00386719 1.76537109 -0.00386719 3.56640625 -0.0078125 C6.4375 0.125 6.4375 0.125 7.4375 1.125 C7.58060287 4.7941577 7.47971662 8.45215441 7.4375 12.125 C2.4875 12.125 -2.4625 12.125 -7.5625 12.125 C-7.8925 8.495 -8.2225 4.865 -8.5625 1.125 C-5.69616205 -0.30816898 -3.19014499 -0.00700361 0 0 Z " fill="#FEFEFE" transform="translate(232.5625,287.875)"/>
<path d="M0 0 C5.28 0 10.56 0 16 0 C15.67 0.66 15.34 1.32 15 2 C14.93003986 3.70702735 14.91559846 5.41668003 14.9375 7.125 C14.958125 8.73375 14.97875 10.3425 15 12 C10.05 12 5.1 12 0 12 C0 8.04 0 4.08 0 0 Z " fill="#EEEEEE" transform="translate(210,288)"/>
<path d="M0 0 C5.28 0 10.56 0 16 0 C16 3.96 16 7.92 16 12 C11.05 12 6.1 12 1 12 C0.67 8.04 0.34 4.08 0 0 Z " fill="#EEEEEE" transform="translate(239,288)"/>
<path d="M0 0 C2.97 0 5.94 0 9 0 C9 4.95 9 9.9 9 15 C6.36 15 3.72 15 1 15 C0.67 25.56 0.34 36.12 0 47 C-0.33 47 -0.66 47 -1 47 C-1.02529825 40.62793828 -1.04284496 34.25588946 -1.05493164 27.88378906 C-1.05996891 25.71483883 -1.06679891 23.545892 -1.07543945 21.37695312 C-1.08753151 18.26431437 -1.09323428 15.1517204 -1.09765625 12.0390625 C-1.10281754 11.065065 -1.10797882 10.0910675 -1.11329651 9.08755493 C-1.11337204 8.18677216 -1.11344757 7.28598938 -1.11352539 6.35791016 C-1.115746 5.56293121 -1.11796661 4.76795227 -1.12025452 3.94888306 C-1 2 -1 2 0 0 Z " fill="#DADADA" transform="translate(321,120)"/>
<path d="M0 0 C3.96 0 7.92 0 12 0 C11.67793494 2.66853907 11.34457004 5.3343679 11 8 C10.855625 9.134375 10.71125 10.26875 10.5625 11.4375 C10.376875 12.283125 10.19125 13.12875 10 14 C6.78548731 15.60725635 3.56387464 15.05748185 0 15 C0 10.05 0 5.1 0 0 Z " fill="#EAEAEA" transform="translate(75,270)"/>
<path d="M0 0 C3.35286458 0.03255208 6.70572917 0.06510417 10.05859375 0.09765625 C10.05859375 5.04765625 10.05859375 9.99765625 10.05859375 15.09765625 C8.40859375 15.42765625 6.75859375 15.75765625 5.05859375 16.09765625 C2.05859375 11.47265625 2.05859375 11.47265625 2.05859375 8.09765625 C1.39859375 8.09765625 0.73859375 8.09765625 0.05859375 8.09765625 C-1.92140625 4.63265625 -1.92140625 4.63265625 -3.94140625 1.09765625 C-2.94140625 0.09765625 -2.94140625 0.09765625 0 0 Z " fill="#EDEDED" transform="translate(304.94140625,74.90234375)"/>
<path d="M0 0 C3.63 0 7.26 0 11 0 C9 10.71428571 9 10.71428571 7 15 C4.69 15 2.38 15 0 15 C0 10.05 0 5.1 0 0 Z " fill="#EDEDED" transform="translate(15,90)"/>
<path d="M0 0 C4.95 0 9.9 0 15 0 C15.33 1.98 15.66 3.96 16 6 C13.89828133 6.8394882 11.79353375 7.67139656 9.6875 8.5 C8.51574219 8.9640625 7.34398438 9.428125 6.13671875 9.90625 C3 11 3 11 0 11 C0 7.37 0 3.74 0 0 Z " fill="#EDEDED" transform="translate(60,45)"/>
<path d="M0 0 C1.20849609 0.00644531 2.41699219 0.01289062 3.66210938 0.01953125 C5.55606445 0.04466797 5.55606445 0.04466797 7.48828125 0.0703125 C8.76251953 0.07933594 10.03675781 0.08835938 11.34960938 0.09765625 C14.50018752 0.12125609 17.65039108 0.15418056 20.80078125 0.1953125 C21.13078125 2.8353125 21.46078125 5.4753125 21.80078125 8.1953125 C18.01650914 7.68392438 14.4563907 6.82695677 10.80078125 5.7578125 C4.22705005 3.90810055 -2.43325864 3.03488419 -9.19921875 2.1953125 C-5.6590865 -0.16477567 -4.1879992 -0.03932394 0 0 Z " fill="#F8F8F8" transform="translate(249.19921875,44.8046875)"/>
<path d="M0 0 C1.61425517 0.22934773 3.21805556 0.53416708 4.8125 0.875 C5.68519531 1.05804688 6.55789062 1.24109375 7.45703125 1.4296875 C9.64559 1.92051635 11.82404533 2.45601133 14 3 C13.67 5.97 13.34 8.94 13 12 C12.34 11.34 11.68 10.68 11 10 C8.10116917 9.75660449 8.10116917 9.75660449 4.875 9.875 C3.23144531 9.90207031 3.23144531 9.90207031 1.5546875 9.9296875 C0.71164063 9.95289063 -0.13140625 9.97609375 -1 10 C-1.02689216 8.52093108 -1.04634621 7.04172517 -1.0625 5.5625 C-1.07410156 4.73878906 -1.08570312 3.91507813 -1.09765625 3.06640625 C-1 1 -1 1 0 0 Z " fill="#ECECEC" transform="translate(76,245)"/>
<path d="M0 0 C1.27617187 0.02320313 2.55234375 0.04640625 3.8671875 0.0703125 C5.78917969 0.09738281 5.78917969 0.09738281 7.75 0.125 C9.23113281 0.15980469 9.23113281 0.15980469 10.7421875 0.1953125 C10.7421875 4.4853125 10.7421875 8.7753125 10.7421875 13.1953125 C7.7421875 13.1953125 7.7421875 13.1953125 6.12890625 11.8046875 C5.56816406 11.19109375 5.00742187 10.5775 4.4296875 9.9453125 C1.4136754 6.78170832 -1.53400485 4.46592692 -5.2578125 2.1953125 C-3.2578125 0.1953125 -3.2578125 0.1953125 0 0 Z " fill="#ECECEC" transform="translate(289.2578125,59.8046875)"/>
<path d="M0 0 C2.64 0 5.28 0 8 0 C8 4.95 8 9.9 8 15 C5.36 15 2.72 15 0 15 C0 10.05 0 5.1 0 0 Z " fill="#EEEEEE" transform="translate(322,150)"/>
<path d="M0 0 C1.65 0 3.3 0 5 0 C5.33776684 1.7491497 5.67003671 3.49936145 6 5.25 C6.185625 6.22453125 6.37125 7.1990625 6.5625 8.203125 C7 11 7 11 7 15 C4.69 15 2.38 15 0 15 C0 10.05 0 5.1 0 0 Z " fill="#EAEAEA" transform="translate(15,180)"/>
<path d="M0 0 C0.99 0 1.98 0 3 0 C4.0076952 1.7664657 5.00591714 3.53833823 6 5.3125 C6.8353125 6.79169922 6.8353125 6.79169922 7.6875 8.30078125 C9 11 9 11 9 14 C6.03 14 3.06 14 0 14 C0 9.38 0 4.76 0 0 Z " fill="#EBEBEB" transform="translate(150,256)"/>
<path d="M0 0 C0.33 0 0.66 0 1 0 C1.33799692 4.02045543 1.66956119 8.04141688 2 12.0625 C2.14308594 13.7630957 2.14308594 13.7630957 2.2890625 15.49804688 C2.7395756 21.01683235 3.12859272 26.46247589 3 32 C2.67 31.01 2.34 30.02 2 29 C1.01 29 0.02 29 -1 29 C-1.12276617 19.26055028 -0.83779436 9.70943816 0 0 Z " fill="#FDFDFD" transform="translate(16,151)"/>
<path d="M0 0 C0.886875 0.639375 1.77375 1.27875 2.6875 1.9375 C5.69211428 3.80829757 7.5510371 4.59423966 11 5 C11 5.66 11 6.32 11 7 C11.66 7.66 12.32 8.32 13 9 C8.71 9 4.42 9 0 9 C0 6.03 0 3.06 0 0 Z " fill="#ECECEC" transform="translate(165,276)"/>
<path d="M0 0 C0.66 0.33 1.32 0.66 2 1 C1.67 3.97 1.34 6.94 1 10 C-1.97 10 -4.94 10 -8 10 C-8 7 -8 7 -6.25 5.17578125 C-5.5075 4.56089844 -4.765 3.94601562 -4 3.3125 C-3.2575 2.68988281 -2.515 2.06726563 -1.75 1.42578125 C-1.1725 0.95527344 -0.595 0.48476563 0 0 Z " fill="#E8E8E9" transform="translate(104,290)"/>
<path d="M0 0 C0.33 0 0.66 0 1 0 C1.33 4.62 1.66 9.24 2 14 C2.33 14 2.66 14 3 14 C3 18.95 3 23.9 3 29 C2.34 29 1.68 29 1 29 C-0.07917226 25.76248322 -0.11425601 23.42248229 -0.09765625 20.01953125 C-0.09443359 18.85615234 -0.09121094 17.69277344 -0.08789062 16.49414062 C-0.07951172 15.27919922 -0.07113281 14.06425781 -0.0625 12.8125 C-0.05798828 11.58595703 -0.05347656 10.35941406 -0.04882812 9.09570312 C-0.03703065 6.06375332 -0.02056921 3.03190094 0 0 Z " fill="#EEEEEE" transform="translate(342,211)"/>
<path d="M0 0 C1.98 0 3.96 0 6 0 C5.49701212 4.40114397 3.91227269 6.71195019 1 10 C-0.60725635 6.78548731 -0.05748185 3.56387464 0 0 Z " fill="#EAEAEA" transform="translate(30,75)"/>
<path d="M0 0 C1.32 0 2.64 0 4 0 C4 4.95 4 9.9 4 15 C1.27893306 12.27893306 1.39344428 10.15223689 0.875 6.375 C0.70742188 5.18648437 0.53984375 3.99796875 0.3671875 2.7734375 C0.24601562 1.85820312 0.12484375 0.94296875 0 0 Z " fill="#EEEEEE" transform="translate(341,195)"/>
<path d="M0 0 C1.08667969 0.01804688 2.17335937 0.03609375 3.29296875 0.0546875 C4.54013672 0.08949219 4.54013672 0.08949219 5.8125 0.125 C5.8125 0.785 5.8125 1.445 5.8125 2.125 C2.86863377 3.59693312 0.43859964 2.97436173 -2.8125 2.6875 C-4.00101563 2.58566406 -5.18953125 2.48382813 -6.4140625 2.37890625 C-7.32929688 2.29511719 -8.24453125 2.21132813 -9.1875 2.125 C-5.66070901 -0.22619399 -4.15870515 -0.08943452 0 0 Z " fill="#EAEAEA" transform="translate(249.1875,44.875)"/>
<path d="M0 0 C2.64 0 5.28 0 8 0 C8 0.99 8 1.98 8 3 C5.36095629 4.41377341 2.92879371 5.37240135 0 6 C0 4.02 0 2.04 0 0 Z " fill="#EAEAEB" transform="translate(45,60)"/>
<path d="M0 0 C0.66 0.33 1.32 0.66 2 1 C1.67 3.31 1.34 5.62 1 8 C-0.98 8 -2.96 8 -5 8 C-2.25 2.25 -2.25 2.25 0 0 Z " fill="#EAEAEA" transform="translate(119,277)"/>
<path d="M0 0 C1.32 0 2.64 0 4 0 C4.36504603 1.58086048 4.71660506 3.16483907 5.0625 4.75 C5.25972656 5.63171875 5.45695312 6.5134375 5.66015625 7.421875 C5.99825872 9.98679028 5.81158635 11.57091639 5 14 C4.16235732 12.04350603 3.33000941 10.08474444 2.5 8.125 C2.0359375 7.03445312 1.571875 5.94390625 1.09375 4.8203125 C0 2 0 2 0 0 Z " fill="#F7F6F7" transform="translate(311,90)"/>
<path d="M0 0 C0.33 0 0.66 0 1 0 C1 2.31 1 4.62 1 7 C-1.31 7 -3.62 7 -6 7 C-5.02433888 5.83040013 -4.044375 4.66438823 -3.0625 3.5 C-2.51722656 2.8503125 -1.97195312 2.200625 -1.41015625 1.53125 C-0.71212891 0.77328125 -0.71212891 0.77328125 0 0 Z " fill="#EEEEEE" transform="translate(104,293)"/>
<path d="M0 0 C3.39192363 0.59283621 5.2107757 1.76743189 7.75 4.0625 C8.67039062 4.88427734 8.67039062 4.88427734 9.609375 5.72265625 C10.29773438 6.35494141 10.29773438 6.35494141 11 7 C10.67 7.99 10.34 8.98 10 10 C6.66666667 6.66666667 3.33333333 3.33333333 0 0 Z " fill="#DDDDDD" transform="translate(288,64)"/>
<path d="M0 0 C0.66 0.33 1.32 0.66 2 1 C1.34 2.98 0.68 4.96 0 7 C-1.32 6.67 -2.64 6.34 -4 6 C-2.84826645 3.53199953 -1.95216435 1.95216435 0 0 Z " fill="#E5E5E5" transform="translate(135,263)"/>
</svg>
